<mxfile host="Electron" agent="Mozilla/5.0 (Windows NT 10.0; Win64; x64) AppleWebKit/537.36 (KHTML, like Gecko) draw.io/26.2.2 Chrome/134.0.6998.178 Electron/35.1.2 Safari/537.36" version="26.2.2">
  <diagram name="Page-1" id="ZfRfuV9l4qYocXeFMLIF">
    <mxGraphModel dx="3496" dy="2324" grid="1" gridSize="10" guides="1" tooltips="1" connect="1" arrows="1" fold="1" page="1" pageScale="1" pageWidth="850" pageHeight="1100" math="0" shadow="0">
      <root>
        <mxCell id="0" />
        <mxCell id="1" parent="0" />
        <mxCell id="X-bIWE7srPtiGJJOmga7-1" value="Penambahan stok obat" style="swimlane;childLayout=stackLayout;resizeParent=1;resizeParentMax=0;startSize=20;html=1;" parent="1" vertex="1">
          <mxGeometry x="40" y="20" width="320" height="770" as="geometry" />
        </mxCell>
        <mxCell id="X-bIWE7srPtiGJJOmga7-2" value="Apotejer/Staff gudang" style="swimlane;startSize=20;html=1;" parent="X-bIWE7srPtiGJJOmga7-1" vertex="1">
          <mxGeometry y="20" width="160" height="750" as="geometry" />
        </mxCell>
        <mxCell id="X-bIWE7srPtiGJJOmga7-15" style="edgeStyle=orthogonalEdgeStyle;rounded=0;orthogonalLoop=1;jettySize=auto;html=1;exitX=0.5;exitY=1;exitDx=0;exitDy=0;entryX=0.5;entryY=0;entryDx=0;entryDy=0;" parent="X-bIWE7srPtiGJJOmga7-2" source="X-bIWE7srPtiGJJOmga7-13" target="X-bIWE7srPtiGJJOmga7-14" edge="1">
          <mxGeometry relative="1" as="geometry" />
        </mxCell>
        <mxCell id="X-bIWE7srPtiGJJOmga7-13" value="" style="ellipse;whiteSpace=wrap;html=1;aspect=fixed;" parent="X-bIWE7srPtiGJJOmga7-2" vertex="1">
          <mxGeometry x="60" y="40" width="40" height="40" as="geometry" />
        </mxCell>
        <mxCell id="X-bIWE7srPtiGJJOmga7-14" value="Login" style="rounded=1;whiteSpace=wrap;html=1;" parent="X-bIWE7srPtiGJJOmga7-2" vertex="1">
          <mxGeometry x="55" y="100" width="50" height="20" as="geometry" />
        </mxCell>
        <mxCell id="X-bIWE7srPtiGJJOmga7-28" value="" style="edgeStyle=orthogonalEdgeStyle;rounded=0;orthogonalLoop=1;jettySize=auto;html=1;" parent="X-bIWE7srPtiGJJOmga7-2" source="X-bIWE7srPtiGJJOmga7-24" target="X-bIWE7srPtiGJJOmga7-27" edge="1">
          <mxGeometry relative="1" as="geometry" />
        </mxCell>
        <mxCell id="X-bIWE7srPtiGJJOmga7-24" value="Akses menu &quot;Pembelian / Penerimaan obat&quot;" style="rounded=1;whiteSpace=wrap;html=1;" parent="X-bIWE7srPtiGJJOmga7-2" vertex="1">
          <mxGeometry x="29.38" y="276.25" width="101.25" height="42.5" as="geometry" />
        </mxCell>
        <mxCell id="X-bIWE7srPtiGJJOmga7-30" style="edgeStyle=orthogonalEdgeStyle;rounded=0;orthogonalLoop=1;jettySize=auto;html=1;entryX=0.5;entryY=0;entryDx=0;entryDy=0;" parent="X-bIWE7srPtiGJJOmga7-2" source="X-bIWE7srPtiGJJOmga7-27" target="X-bIWE7srPtiGJJOmga7-29" edge="1">
          <mxGeometry relative="1" as="geometry" />
        </mxCell>
        <mxCell id="X-bIWE7srPtiGJJOmga7-27" value="Pilih obat yang ajan di tambahkan" style="rounded=1;whiteSpace=wrap;html=1;" parent="X-bIWE7srPtiGJJOmga7-2" vertex="1">
          <mxGeometry x="29.379999999999995" y="350" width="101.25" height="42.5" as="geometry" />
        </mxCell>
        <mxCell id="X-bIWE7srPtiGJJOmga7-32" value="" style="edgeStyle=orthogonalEdgeStyle;rounded=0;orthogonalLoop=1;jettySize=auto;html=1;" parent="X-bIWE7srPtiGJJOmga7-2" source="X-bIWE7srPtiGJJOmga7-29" target="X-bIWE7srPtiGJJOmga7-31" edge="1">
          <mxGeometry relative="1" as="geometry" />
        </mxCell>
        <mxCell id="X-bIWE7srPtiGJJOmga7-29" value="Masukan jumlah stock, tanggal pemberlian, dan pemasok" style="rounded=1;whiteSpace=wrap;html=1;" parent="X-bIWE7srPtiGJJOmga7-2" vertex="1">
          <mxGeometry x="29.38" y="420" width="101.25" height="60" as="geometry" />
        </mxCell>
        <mxCell id="X-bIWE7srPtiGJJOmga7-31" value="Klik &quot;Simpan&quot;" style="rounded=1;whiteSpace=wrap;html=1;" parent="X-bIWE7srPtiGJJOmga7-2" vertex="1">
          <mxGeometry x="34.7" y="510" width="90.62" height="30" as="geometry" />
        </mxCell>
        <mxCell id="X-bIWE7srPtiGJJOmga7-51" value="" style="ellipse;whiteSpace=wrap;html=1;aspect=fixed;" parent="X-bIWE7srPtiGJJOmga7-2" vertex="1">
          <mxGeometry x="65.01" y="700" width="30" height="30" as="geometry" />
        </mxCell>
        <mxCell id="X-bIWE7srPtiGJJOmga7-54" value="" style="edgeStyle=orthogonalEdgeStyle;rounded=0;orthogonalLoop=1;jettySize=auto;html=1;" parent="X-bIWE7srPtiGJJOmga7-2" source="X-bIWE7srPtiGJJOmga7-52" target="X-bIWE7srPtiGJJOmga7-51" edge="1">
          <mxGeometry relative="1" as="geometry" />
        </mxCell>
        <mxCell id="X-bIWE7srPtiGJJOmga7-52" value="Logout" style="rounded=1;whiteSpace=wrap;html=1;" parent="X-bIWE7srPtiGJJOmga7-2" vertex="1">
          <mxGeometry x="41.03" y="640" width="77.96" height="30" as="geometry" />
        </mxCell>
        <mxCell id="X-bIWE7srPtiGJJOmga7-3" value="System" style="swimlane;startSize=20;html=1;" parent="X-bIWE7srPtiGJJOmga7-1" vertex="1">
          <mxGeometry x="160" y="20" width="160" height="750" as="geometry" />
        </mxCell>
        <mxCell id="X-bIWE7srPtiGJJOmga7-16" value="" style="edgeStyle=orthogonalEdgeStyle;rounded=0;orthogonalLoop=1;jettySize=auto;html=1;entryX=0.5;entryY=0;entryDx=0;entryDy=0;" parent="X-bIWE7srPtiGJJOmga7-3" source="X-bIWE7srPtiGJJOmga7-17" target="X-bIWE7srPtiGJJOmga7-21" edge="1">
          <mxGeometry relative="1" as="geometry">
            <mxPoint x="80" y="250" as="targetPoint" />
          </mxGeometry>
        </mxCell>
        <mxCell id="X-bIWE7srPtiGJJOmga7-17" value="" style="verticalLabelPosition=bottom;verticalAlign=top;html=1;shape=mxgraph.flowchart.collate;" parent="X-bIWE7srPtiGJJOmga7-3" vertex="1">
          <mxGeometry x="65" y="155" width="30" height="30" as="geometry" />
        </mxCell>
        <mxCell id="X-bIWE7srPtiGJJOmga7-18" value="Memverifikasi level akses" style="rounded=1;whiteSpace=wrap;html=1;" parent="X-bIWE7srPtiGJJOmga7-3" vertex="1">
          <mxGeometry x="28.75" y="90" width="102.5" height="40" as="geometry" />
        </mxCell>
        <mxCell id="X-bIWE7srPtiGJJOmga7-19" style="edgeStyle=orthogonalEdgeStyle;rounded=0;orthogonalLoop=1;jettySize=auto;html=1;exitX=0.5;exitY=1;exitDx=0;exitDy=0;entryX=0.5;entryY=0;entryDx=0;entryDy=0;entryPerimeter=0;" parent="X-bIWE7srPtiGJJOmga7-3" source="X-bIWE7srPtiGJJOmga7-18" target="X-bIWE7srPtiGJJOmga7-17" edge="1">
          <mxGeometry relative="1" as="geometry" />
        </mxCell>
        <mxCell id="X-bIWE7srPtiGJJOmga7-20" style="edgeStyle=orthogonalEdgeStyle;rounded=0;orthogonalLoop=1;jettySize=auto;html=1;exitX=0.5;exitY=1;exitDx=0;exitDy=0;entryX=0.5;entryY=0;entryDx=0;entryDy=0;" parent="X-bIWE7srPtiGJJOmga7-3" source="X-bIWE7srPtiGJJOmga7-21" target="X-bIWE7srPtiGJJOmga7-22" edge="1">
          <mxGeometry relative="1" as="geometry" />
        </mxCell>
        <mxCell id="X-bIWE7srPtiGJJOmga7-21" value="Level akses diverifikasi sebagai Apoteker" style="rounded=1;whiteSpace=wrap;html=1;" parent="X-bIWE7srPtiGJJOmga7-3" vertex="1">
          <mxGeometry x="28.75" y="205" width="101.25" height="50" as="geometry" />
        </mxCell>
        <mxCell id="X-bIWE7srPtiGJJOmga7-22" value="Menampilkan Dashboard" style="rounded=1;whiteSpace=wrap;html=1;" parent="X-bIWE7srPtiGJJOmga7-3" vertex="1">
          <mxGeometry x="28.75" y="280" width="101.25" height="35" as="geometry" />
        </mxCell>
        <mxCell id="X-bIWE7srPtiGJJOmga7-33" value="Sistem memperbarui stok obat" style="rounded=1;whiteSpace=wrap;html=1;" parent="X-bIWE7srPtiGJJOmga7-3" vertex="1">
          <mxGeometry x="34.690000000000005" y="505" width="90.62" height="40" as="geometry" />
        </mxCell>
        <mxCell id="X-bIWE7srPtiGJJOmga7-50" style="edgeStyle=orthogonalEdgeStyle;rounded=0;orthogonalLoop=1;jettySize=auto;html=1;exitX=0.5;exitY=1;exitDx=0;exitDy=0;exitPerimeter=0;entryX=0.5;entryY=0;entryDx=0;entryDy=0;" parent="X-bIWE7srPtiGJJOmga7-3" source="X-bIWE7srPtiGJJOmga7-44" target="X-bIWE7srPtiGJJOmga7-48" edge="1">
          <mxGeometry relative="1" as="geometry" />
        </mxCell>
        <mxCell id="X-bIWE7srPtiGJJOmga7-44" value="" style="verticalLabelPosition=bottom;verticalAlign=top;html=1;shape=mxgraph.flowchart.collate;" parent="X-bIWE7srPtiGJJOmga7-3" vertex="1">
          <mxGeometry x="64.38" y="570" width="30" height="30" as="geometry" />
        </mxCell>
        <mxCell id="X-bIWE7srPtiGJJOmga7-45" style="edgeStyle=orthogonalEdgeStyle;rounded=0;orthogonalLoop=1;jettySize=auto;html=1;exitX=0.5;exitY=1;exitDx=0;exitDy=0;entryX=0.5;entryY=0;entryDx=0;entryDy=0;entryPerimeter=0;" parent="X-bIWE7srPtiGJJOmga7-3" source="X-bIWE7srPtiGJJOmga7-33" target="X-bIWE7srPtiGJJOmga7-44" edge="1">
          <mxGeometry relative="1" as="geometry" />
        </mxCell>
        <mxCell id="X-bIWE7srPtiGJJOmga7-48" value="Menampilkan laporan ringkas pembaruan stok" style="rounded=1;whiteSpace=wrap;html=1;" parent="X-bIWE7srPtiGJJOmga7-3" vertex="1">
          <mxGeometry x="31.41" y="630" width="95.93" height="50" as="geometry" />
        </mxCell>
        <mxCell id="X-bIWE7srPtiGJJOmga7-23" style="edgeStyle=orthogonalEdgeStyle;rounded=0;orthogonalLoop=1;jettySize=auto;html=1;" parent="X-bIWE7srPtiGJJOmga7-1" source="X-bIWE7srPtiGJJOmga7-14" target="X-bIWE7srPtiGJJOmga7-18" edge="1">
          <mxGeometry relative="1" as="geometry" />
        </mxCell>
        <mxCell id="X-bIWE7srPtiGJJOmga7-25" value="" style="edgeStyle=orthogonalEdgeStyle;rounded=0;orthogonalLoop=1;jettySize=auto;html=1;" parent="X-bIWE7srPtiGJJOmga7-1" source="X-bIWE7srPtiGJJOmga7-22" target="X-bIWE7srPtiGJJOmga7-24" edge="1">
          <mxGeometry relative="1" as="geometry" />
        </mxCell>
        <mxCell id="X-bIWE7srPtiGJJOmga7-34" value="" style="edgeStyle=orthogonalEdgeStyle;rounded=0;orthogonalLoop=1;jettySize=auto;html=1;" parent="X-bIWE7srPtiGJJOmga7-1" source="X-bIWE7srPtiGJJOmga7-31" target="X-bIWE7srPtiGJJOmga7-33" edge="1">
          <mxGeometry relative="1" as="geometry" />
        </mxCell>
        <mxCell id="X-bIWE7srPtiGJJOmga7-53" value="" style="edgeStyle=orthogonalEdgeStyle;rounded=0;orthogonalLoop=1;jettySize=auto;html=1;" parent="X-bIWE7srPtiGJJOmga7-1" source="X-bIWE7srPtiGJJOmga7-48" target="X-bIWE7srPtiGJJOmga7-52" edge="1">
          <mxGeometry relative="1" as="geometry" />
        </mxCell>
        <mxCell id="X-bIWE7srPtiGJJOmga7-55" value="Pengurangan stok obat (Distribusi / pemakaian)" style="swimlane;childLayout=stackLayout;resizeParent=1;resizeParentMax=0;startSize=20;html=1;" parent="1" vertex="1">
          <mxGeometry x="400" y="20" width="320" height="770" as="geometry" />
        </mxCell>
        <mxCell id="X-bIWE7srPtiGJJOmga7-56" value="Apotejer/Staff gudang" style="swimlane;startSize=20;html=1;" parent="X-bIWE7srPtiGJJOmga7-55" vertex="1">
          <mxGeometry y="20" width="160" height="750" as="geometry" />
        </mxCell>
        <mxCell id="X-bIWE7srPtiGJJOmga7-57" style="edgeStyle=orthogonalEdgeStyle;rounded=0;orthogonalLoop=1;jettySize=auto;html=1;exitX=0.5;exitY=1;exitDx=0;exitDy=0;entryX=0.5;entryY=0;entryDx=0;entryDy=0;" parent="X-bIWE7srPtiGJJOmga7-56" source="X-bIWE7srPtiGJJOmga7-58" target="X-bIWE7srPtiGJJOmga7-59" edge="1">
          <mxGeometry relative="1" as="geometry" />
        </mxCell>
        <mxCell id="X-bIWE7srPtiGJJOmga7-58" value="" style="ellipse;whiteSpace=wrap;html=1;aspect=fixed;" parent="X-bIWE7srPtiGJJOmga7-56" vertex="1">
          <mxGeometry x="60" y="40" width="40" height="40" as="geometry" />
        </mxCell>
        <mxCell id="X-bIWE7srPtiGJJOmga7-59" value="Login" style="rounded=1;whiteSpace=wrap;html=1;" parent="X-bIWE7srPtiGJJOmga7-56" vertex="1">
          <mxGeometry x="55" y="100" width="50" height="20" as="geometry" />
        </mxCell>
        <mxCell id="X-bIWE7srPtiGJJOmga7-60" value="" style="edgeStyle=orthogonalEdgeStyle;rounded=0;orthogonalLoop=1;jettySize=auto;html=1;" parent="X-bIWE7srPtiGJJOmga7-56" source="X-bIWE7srPtiGJJOmga7-61" target="X-bIWE7srPtiGJJOmga7-63" edge="1">
          <mxGeometry relative="1" as="geometry" />
        </mxCell>
        <mxCell id="X-bIWE7srPtiGJJOmga7-61" value="Akses menu &quot;Pengurangan&quot;" style="rounded=1;whiteSpace=wrap;html=1;" parent="X-bIWE7srPtiGJJOmga7-56" vertex="1">
          <mxGeometry x="29.38" y="276.25" width="101.25" height="42.5" as="geometry" />
        </mxCell>
        <mxCell id="X-bIWE7srPtiGJJOmga7-62" style="edgeStyle=orthogonalEdgeStyle;rounded=0;orthogonalLoop=1;jettySize=auto;html=1;entryX=0.5;entryY=0;entryDx=0;entryDy=0;" parent="X-bIWE7srPtiGJJOmga7-56" source="X-bIWE7srPtiGJJOmga7-63" target="X-bIWE7srPtiGJJOmga7-65" edge="1">
          <mxGeometry relative="1" as="geometry" />
        </mxCell>
        <mxCell id="X-bIWE7srPtiGJJOmga7-63" value="Pilih obat dan jumlah yang akan di gunakan" style="rounded=1;whiteSpace=wrap;html=1;" parent="X-bIWE7srPtiGJJOmga7-56" vertex="1">
          <mxGeometry x="29.379999999999995" y="350" width="101.25" height="42.5" as="geometry" />
        </mxCell>
        <mxCell id="X-bIWE7srPtiGJJOmga7-64" value="" style="edgeStyle=orthogonalEdgeStyle;rounded=0;orthogonalLoop=1;jettySize=auto;html=1;" parent="X-bIWE7srPtiGJJOmga7-56" source="X-bIWE7srPtiGJJOmga7-65" target="X-bIWE7srPtiGJJOmga7-66" edge="1">
          <mxGeometry relative="1" as="geometry" />
        </mxCell>
        <mxCell id="X-bIWE7srPtiGJJOmga7-65" value="Masukan alasan penggunaan" style="rounded=1;whiteSpace=wrap;html=1;" parent="X-bIWE7srPtiGJJOmga7-56" vertex="1">
          <mxGeometry x="29.38" y="420" width="101.25" height="60" as="geometry" />
        </mxCell>
        <mxCell id="X-bIWE7srPtiGJJOmga7-66" value="Klik &quot;Simpan&quot;" style="rounded=1;whiteSpace=wrap;html=1;" parent="X-bIWE7srPtiGJJOmga7-56" vertex="1">
          <mxGeometry x="34.7" y="510" width="90.62" height="30" as="geometry" />
        </mxCell>
        <mxCell id="X-bIWE7srPtiGJJOmga7-67" value="" style="ellipse;whiteSpace=wrap;html=1;aspect=fixed;" parent="X-bIWE7srPtiGJJOmga7-56" vertex="1">
          <mxGeometry x="65.01" y="700" width="30" height="30" as="geometry" />
        </mxCell>
        <mxCell id="X-bIWE7srPtiGJJOmga7-68" value="" style="edgeStyle=orthogonalEdgeStyle;rounded=0;orthogonalLoop=1;jettySize=auto;html=1;" parent="X-bIWE7srPtiGJJOmga7-56" source="X-bIWE7srPtiGJJOmga7-69" target="X-bIWE7srPtiGJJOmga7-67" edge="1">
          <mxGeometry relative="1" as="geometry" />
        </mxCell>
        <mxCell id="X-bIWE7srPtiGJJOmga7-69" value="Logout" style="rounded=1;whiteSpace=wrap;html=1;" parent="X-bIWE7srPtiGJJOmga7-56" vertex="1">
          <mxGeometry x="41.03" y="640" width="77.96" height="30" as="geometry" />
        </mxCell>
        <mxCell id="X-bIWE7srPtiGJJOmga7-70" value="System" style="swimlane;startSize=20;html=1;" parent="X-bIWE7srPtiGJJOmga7-55" vertex="1">
          <mxGeometry x="160" y="20" width="160" height="750" as="geometry" />
        </mxCell>
        <mxCell id="X-bIWE7srPtiGJJOmga7-71" value="" style="edgeStyle=orthogonalEdgeStyle;rounded=0;orthogonalLoop=1;jettySize=auto;html=1;entryX=0.5;entryY=0;entryDx=0;entryDy=0;" parent="X-bIWE7srPtiGJJOmga7-70" source="X-bIWE7srPtiGJJOmga7-72" target="X-bIWE7srPtiGJJOmga7-76" edge="1">
          <mxGeometry relative="1" as="geometry">
            <mxPoint x="80" y="250" as="targetPoint" />
          </mxGeometry>
        </mxCell>
        <mxCell id="X-bIWE7srPtiGJJOmga7-72" value="" style="verticalLabelPosition=bottom;verticalAlign=top;html=1;shape=mxgraph.flowchart.collate;" parent="X-bIWE7srPtiGJJOmga7-70" vertex="1">
          <mxGeometry x="65" y="155" width="30" height="30" as="geometry" />
        </mxCell>
        <mxCell id="X-bIWE7srPtiGJJOmga7-73" value="Memverifikasi level akses" style="rounded=1;whiteSpace=wrap;html=1;" parent="X-bIWE7srPtiGJJOmga7-70" vertex="1">
          <mxGeometry x="28.75" y="90" width="102.5" height="40" as="geometry" />
        </mxCell>
        <mxCell id="X-bIWE7srPtiGJJOmga7-74" style="edgeStyle=orthogonalEdgeStyle;rounded=0;orthogonalLoop=1;jettySize=auto;html=1;exitX=0.5;exitY=1;exitDx=0;exitDy=0;entryX=0.5;entryY=0;entryDx=0;entryDy=0;entryPerimeter=0;" parent="X-bIWE7srPtiGJJOmga7-70" source="X-bIWE7srPtiGJJOmga7-73" target="X-bIWE7srPtiGJJOmga7-72" edge="1">
          <mxGeometry relative="1" as="geometry" />
        </mxCell>
        <mxCell id="X-bIWE7srPtiGJJOmga7-75" style="edgeStyle=orthogonalEdgeStyle;rounded=0;orthogonalLoop=1;jettySize=auto;html=1;exitX=0.5;exitY=1;exitDx=0;exitDy=0;entryX=0.5;entryY=0;entryDx=0;entryDy=0;" parent="X-bIWE7srPtiGJJOmga7-70" source="X-bIWE7srPtiGJJOmga7-76" target="X-bIWE7srPtiGJJOmga7-77" edge="1">
          <mxGeometry relative="1" as="geometry" />
        </mxCell>
        <mxCell id="X-bIWE7srPtiGJJOmga7-76" value="Level akses diverifikasi sebagai Apoteker" style="rounded=1;whiteSpace=wrap;html=1;" parent="X-bIWE7srPtiGJJOmga7-70" vertex="1">
          <mxGeometry x="28.75" y="205" width="101.25" height="50" as="geometry" />
        </mxCell>
        <mxCell id="X-bIWE7srPtiGJJOmga7-77" value="Menampilkan Dashboard" style="rounded=1;whiteSpace=wrap;html=1;" parent="X-bIWE7srPtiGJJOmga7-70" vertex="1">
          <mxGeometry x="28.75" y="280" width="101.25" height="35" as="geometry" />
        </mxCell>
        <mxCell id="X-bIWE7srPtiGJJOmga7-78" value="Sistem mengurangi stok" style="rounded=1;whiteSpace=wrap;html=1;" parent="X-bIWE7srPtiGJJOmga7-70" vertex="1">
          <mxGeometry x="34.690000000000005" y="505" width="90.62" height="40" as="geometry" />
        </mxCell>
        <mxCell id="X-bIWE7srPtiGJJOmga7-79" style="edgeStyle=orthogonalEdgeStyle;rounded=0;orthogonalLoop=1;jettySize=auto;html=1;exitX=0.5;exitY=1;exitDx=0;exitDy=0;exitPerimeter=0;entryX=0.5;entryY=0;entryDx=0;entryDy=0;" parent="X-bIWE7srPtiGJJOmga7-70" source="X-bIWE7srPtiGJJOmga7-80" target="X-bIWE7srPtiGJJOmga7-82" edge="1">
          <mxGeometry relative="1" as="geometry" />
        </mxCell>
        <mxCell id="X-bIWE7srPtiGJJOmga7-80" value="" style="verticalLabelPosition=bottom;verticalAlign=top;html=1;shape=mxgraph.flowchart.collate;" parent="X-bIWE7srPtiGJJOmga7-70" vertex="1">
          <mxGeometry x="64.38" y="570" width="30" height="30" as="geometry" />
        </mxCell>
        <mxCell id="X-bIWE7srPtiGJJOmga7-81" style="edgeStyle=orthogonalEdgeStyle;rounded=0;orthogonalLoop=1;jettySize=auto;html=1;exitX=0.5;exitY=1;exitDx=0;exitDy=0;entryX=0.5;entryY=0;entryDx=0;entryDy=0;entryPerimeter=0;" parent="X-bIWE7srPtiGJJOmga7-70" source="X-bIWE7srPtiGJJOmga7-78" target="X-bIWE7srPtiGJJOmga7-80" edge="1">
          <mxGeometry relative="1" as="geometry" />
        </mxCell>
        <mxCell id="X-bIWE7srPtiGJJOmga7-82" value="Menampilkan laporan" style="rounded=1;whiteSpace=wrap;html=1;" parent="X-bIWE7srPtiGJJOmga7-70" vertex="1">
          <mxGeometry x="31.41" y="630" width="95.93" height="50" as="geometry" />
        </mxCell>
        <mxCell id="X-bIWE7srPtiGJJOmga7-83" style="edgeStyle=orthogonalEdgeStyle;rounded=0;orthogonalLoop=1;jettySize=auto;html=1;" parent="X-bIWE7srPtiGJJOmga7-55" source="X-bIWE7srPtiGJJOmga7-59" target="X-bIWE7srPtiGJJOmga7-73" edge="1">
          <mxGeometry relative="1" as="geometry" />
        </mxCell>
        <mxCell id="X-bIWE7srPtiGJJOmga7-84" value="" style="edgeStyle=orthogonalEdgeStyle;rounded=0;orthogonalLoop=1;jettySize=auto;html=1;" parent="X-bIWE7srPtiGJJOmga7-55" source="X-bIWE7srPtiGJJOmga7-77" target="X-bIWE7srPtiGJJOmga7-61" edge="1">
          <mxGeometry relative="1" as="geometry" />
        </mxCell>
        <mxCell id="X-bIWE7srPtiGJJOmga7-85" value="" style="edgeStyle=orthogonalEdgeStyle;rounded=0;orthogonalLoop=1;jettySize=auto;html=1;" parent="X-bIWE7srPtiGJJOmga7-55" source="X-bIWE7srPtiGJJOmga7-66" target="X-bIWE7srPtiGJJOmga7-78" edge="1">
          <mxGeometry relative="1" as="geometry" />
        </mxCell>
        <mxCell id="X-bIWE7srPtiGJJOmga7-86" value="" style="edgeStyle=orthogonalEdgeStyle;rounded=0;orthogonalLoop=1;jettySize=auto;html=1;" parent="X-bIWE7srPtiGJJOmga7-55" source="X-bIWE7srPtiGJJOmga7-82" target="X-bIWE7srPtiGJJOmga7-69" edge="1">
          <mxGeometry relative="1" as="geometry" />
        </mxCell>
        <mxCell id="X-bIWE7srPtiGJJOmga7-87" value="" style="shape=note;whiteSpace=wrap;html=1;backgroundOutline=1;darkOpacity=0.05;size=55;flipH=0;" parent="1" vertex="1">
          <mxGeometry x="40" y="800" width="680" height="280" as="geometry" />
        </mxCell>
        <mxCell id="X-bIWE7srPtiGJJOmga7-88" value="" style="whiteSpace=wrap;html=1;aspect=fixed;" parent="1" vertex="1">
          <mxGeometry x="850" y="90" width="360" height="360" as="geometry" />
        </mxCell>
        <mxCell id="X-bIWE7srPtiGJJOmga7-102" style="rounded=0;orthogonalLoop=1;jettySize=auto;html=1;exitX=0.5;exitY=0.5;exitDx=0;exitDy=0;exitPerimeter=0;entryX=0;entryY=0.5;entryDx=0;entryDy=0;" parent="1" source="X-bIWE7srPtiGJJOmga7-89" target="X-bIWE7srPtiGJJOmga7-93" edge="1">
          <mxGeometry relative="1" as="geometry" />
        </mxCell>
        <mxCell id="X-bIWE7srPtiGJJOmga7-89" value="Apoteker" style="shape=umlActor;verticalLabelPosition=bottom;verticalAlign=top;html=1;outlineConnect=0;" parent="1" vertex="1">
          <mxGeometry x="790" y="165" width="30" height="60" as="geometry" />
        </mxCell>
        <mxCell id="X-bIWE7srPtiGJJOmga7-104" style="rounded=0;orthogonalLoop=1;jettySize=auto;html=1;exitX=0.5;exitY=0.5;exitDx=0;exitDy=0;exitPerimeter=0;entryX=0;entryY=1;entryDx=0;entryDy=0;" parent="1" source="X-bIWE7srPtiGJJOmga7-91" target="X-bIWE7srPtiGJJOmga7-93" edge="1">
          <mxGeometry relative="1" as="geometry" />
        </mxCell>
        <mxCell id="X-bIWE7srPtiGJJOmga7-106" style="rounded=0;orthogonalLoop=1;jettySize=auto;html=1;exitX=0.5;exitY=0.5;exitDx=0;exitDy=0;exitPerimeter=0;entryX=0;entryY=0.5;entryDx=0;entryDy=0;" parent="1" source="X-bIWE7srPtiGJJOmga7-91" target="X-bIWE7srPtiGJJOmga7-105" edge="1">
          <mxGeometry relative="1" as="geometry" />
        </mxCell>
        <mxCell id="X-bIWE7srPtiGJJOmga7-91" value="Staff gudang" style="shape=umlActor;verticalLabelPosition=bottom;verticalAlign=top;html=1;outlineConnect=0;" parent="1" vertex="1">
          <mxGeometry x="790" y="315" width="30" height="60" as="geometry" />
        </mxCell>
        <mxCell id="X-bIWE7srPtiGJJOmga7-103" style="rounded=0;orthogonalLoop=1;jettySize=auto;html=1;exitX=0.5;exitY=0.5;exitDx=0;exitDy=0;exitPerimeter=0;entryX=1;entryY=0.5;entryDx=0;entryDy=0;" parent="1" source="X-bIWE7srPtiGJJOmga7-92" target="X-bIWE7srPtiGJJOmga7-93" edge="1">
          <mxGeometry relative="1" as="geometry" />
        </mxCell>
        <mxCell id="X-bIWE7srPtiGJJOmga7-92" value="Admin" style="shape=umlActor;verticalLabelPosition=bottom;verticalAlign=top;html=1;outlineConnect=0;" parent="1" vertex="1">
          <mxGeometry x="1260" y="240" width="30" height="60" as="geometry" />
        </mxCell>
        <mxCell id="X-bIWE7srPtiGJJOmga7-93" value="Penambahan stok obat" style="ellipse;whiteSpace=wrap;html=1;" parent="1" vertex="1">
          <mxGeometry x="980" y="230" width="95" height="60" as="geometry" />
        </mxCell>
        <mxCell id="X-bIWE7srPtiGJJOmga7-96" style="rounded=0;orthogonalLoop=1;jettySize=auto;html=1;exitX=0.5;exitY=0;exitDx=0;exitDy=0;entryX=0;entryY=0;entryDx=0;entryDy=0;dashed=1;" parent="1" source="X-bIWE7srPtiGJJOmga7-94" target="X-bIWE7srPtiGJJOmga7-93" edge="1">
          <mxGeometry relative="1" as="geometry" />
        </mxCell>
        <mxCell id="X-bIWE7srPtiGJJOmga7-101" value="Extend" style="edgeLabel;html=1;align=center;verticalAlign=middle;resizable=0;points=[];" parent="X-bIWE7srPtiGJJOmga7-96" vertex="1" connectable="0">
          <mxGeometry x="-0.1474" y="-1" relative="1" as="geometry">
            <mxPoint as="offset" />
          </mxGeometry>
        </mxCell>
        <mxCell id="X-bIWE7srPtiGJJOmga7-94" value="Pembelian" style="ellipse;whiteSpace=wrap;html=1;direction=west;" parent="1" vertex="1">
          <mxGeometry x="920" y="140" width="90" height="40" as="geometry" />
        </mxCell>
        <mxCell id="X-bIWE7srPtiGJJOmga7-97" style="rounded=0;orthogonalLoop=1;jettySize=auto;html=1;entryX=1;entryY=0;entryDx=0;entryDy=0;dashed=1;" parent="1" source="X-bIWE7srPtiGJJOmga7-95" target="X-bIWE7srPtiGJJOmga7-93" edge="1">
          <mxGeometry relative="1" as="geometry" />
        </mxCell>
        <mxCell id="X-bIWE7srPtiGJJOmga7-100" value="Extend" style="edgeLabel;html=1;align=center;verticalAlign=middle;resizable=0;points=[];" parent="X-bIWE7srPtiGJJOmga7-97" vertex="1" connectable="0">
          <mxGeometry x="-0.2074" y="-2" relative="1" as="geometry">
            <mxPoint as="offset" />
          </mxGeometry>
        </mxCell>
        <mxCell id="X-bIWE7srPtiGJJOmga7-95" value="Penerimaan obat" style="ellipse;whiteSpace=wrap;html=1;" parent="1" vertex="1">
          <mxGeometry x="1075" y="140" width="90" height="50" as="geometry" />
        </mxCell>
        <mxCell id="X-bIWE7srPtiGJJOmga7-105" value="Pengeluaran / Pengurangan&lt;div&gt;stok obat&lt;/div&gt;" style="ellipse;whiteSpace=wrap;html=1;" parent="1" vertex="1">
          <mxGeometry x="976.25" y="330" width="102.5" height="60" as="geometry" />
        </mxCell>
        <mxCell id="X-bIWE7srPtiGJJOmga7-107" style="rounded=0;orthogonalLoop=1;jettySize=auto;html=1;exitX=0.5;exitY=0.5;exitDx=0;exitDy=0;exitPerimeter=0;entryX=0.024;entryY=0.271;entryDx=0;entryDy=0;entryPerimeter=0;flowAnimation=0;" parent="1" source="X-bIWE7srPtiGJJOmga7-89" target="X-bIWE7srPtiGJJOmga7-105" edge="1">
          <mxGeometry relative="1" as="geometry" />
        </mxCell>
        <mxCell id="X-bIWE7srPtiGJJOmga7-108" style="rounded=0;orthogonalLoop=1;jettySize=auto;html=1;exitX=0.5;exitY=0.5;exitDx=0;exitDy=0;exitPerimeter=0;entryX=0.951;entryY=0.292;entryDx=0;entryDy=0;entryPerimeter=0;" parent="1" source="X-bIWE7srPtiGJJOmga7-92" target="X-bIWE7srPtiGJJOmga7-105" edge="1">
          <mxGeometry relative="1" as="geometry" />
        </mxCell>
        <mxCell id="X-bIWE7srPtiGJJOmga7-132" style="edgeStyle=orthogonalEdgeStyle;rounded=0;orthogonalLoop=1;jettySize=auto;html=1;endArrow=diamondThin;startFill=0;endFill=1;" parent="1" source="X-bIWE7srPtiGJJOmga7-109" target="X-bIWE7srPtiGJJOmga7-121" edge="1">
          <mxGeometry relative="1" as="geometry" />
        </mxCell>
        <mxCell id="X-bIWE7srPtiGJJOmga7-109" value="Stok_obat" style="swimlane;fontStyle=1;align=center;verticalAlign=top;childLayout=stackLayout;horizontal=1;startSize=26;horizontalStack=0;resizeParent=1;resizeParentMax=0;resizeLast=0;collapsible=1;marginBottom=0;whiteSpace=wrap;html=1;" parent="1" vertex="1">
          <mxGeometry x="1115" y="520" width="160" height="156" as="geometry" />
        </mxCell>
        <mxCell id="X-bIWE7srPtiGJJOmga7-110" value="- idObat &lt;span style=&quot;white-space: pre;&quot;&gt;&#x9;&lt;/span&gt;: int" style="text;strokeColor=none;fillColor=none;align=left;verticalAlign=top;spacingLeft=4;spacingRight=4;overflow=hidden;rotatable=0;points=[[0,0.5],[1,0.5]];portConstraint=eastwest;whiteSpace=wrap;html=1;" parent="X-bIWE7srPtiGJJOmga7-109" vertex="1">
          <mxGeometry y="26" width="160" height="26" as="geometry" />
        </mxCell>
        <mxCell id="X-bIWE7srPtiGJJOmga7-130" value="- nama&lt;span style=&quot;white-space: pre;&quot;&gt;&#x9;&lt;/span&gt;: string" style="text;strokeColor=none;fillColor=none;align=left;verticalAlign=top;spacingLeft=4;spacingRight=4;overflow=hidden;rotatable=0;points=[[0,0.5],[1,0.5]];portConstraint=eastwest;whiteSpace=wrap;html=1;" parent="X-bIWE7srPtiGJJOmga7-109" vertex="1">
          <mxGeometry y="52" width="160" height="26" as="geometry" />
        </mxCell>
        <mxCell id="X-bIWE7srPtiGJJOmga7-131" value="- jenis&lt;span style=&quot;white-space: pre;&quot;&gt;&#x9;&lt;/span&gt;: string" style="text;strokeColor=none;fillColor=none;align=left;verticalAlign=top;spacingLeft=4;spacingRight=4;overflow=hidden;rotatable=0;points=[[0,0.5],[1,0.5]];portConstraint=eastwest;whiteSpace=wrap;html=1;" parent="X-bIWE7srPtiGJJOmga7-109" vertex="1">
          <mxGeometry y="78" width="160" height="26" as="geometry" />
        </mxCell>
        <mxCell id="X-bIWE7srPtiGJJOmga7-129" value="- bentuk&lt;span style=&quot;white-space: pre;&quot;&gt;&#x9;&lt;/span&gt;: string" style="text;strokeColor=none;fillColor=none;align=left;verticalAlign=top;spacingLeft=4;spacingRight=4;overflow=hidden;rotatable=0;points=[[0,0.5],[1,0.5]];portConstraint=eastwest;whiteSpace=wrap;html=1;" parent="X-bIWE7srPtiGJJOmga7-109" vertex="1">
          <mxGeometry y="104" width="160" height="26" as="geometry" />
        </mxCell>
        <mxCell id="X-bIWE7srPtiGJJOmga7-128" value="- dosis&lt;span style=&quot;white-space: pre;&quot;&gt;&#x9;&lt;/span&gt;: string" style="text;strokeColor=none;fillColor=none;align=left;verticalAlign=top;spacingLeft=4;spacingRight=4;overflow=hidden;rotatable=0;points=[[0,0.5],[1,0.5]];portConstraint=eastwest;whiteSpace=wrap;html=1;" parent="X-bIWE7srPtiGJJOmga7-109" vertex="1">
          <mxGeometry y="130" width="160" height="26" as="geometry" />
        </mxCell>
        <mxCell id="X-bIWE7srPtiGJJOmga7-138" style="edgeStyle=orthogonalEdgeStyle;rounded=0;orthogonalLoop=1;jettySize=auto;html=1;endArrow=none;startFill=0;" parent="1" source="X-bIWE7srPtiGJJOmga7-113" target="X-bIWE7srPtiGJJOmga7-117" edge="1">
          <mxGeometry relative="1" as="geometry" />
        </mxCell>
        <mxCell id="X-bIWE7srPtiGJJOmga7-113" value="Classname" style="swimlane;fontStyle=1;align=center;verticalAlign=top;childLayout=stackLayout;horizontal=1;startSize=26;horizontalStack=0;resizeParent=1;resizeParentMax=0;resizeLast=0;collapsible=1;marginBottom=0;whiteSpace=wrap;html=1;" parent="1" vertex="1">
          <mxGeometry x="790" y="530" width="160" height="216" as="geometry" />
        </mxCell>
        <mxCell id="X-bIWE7srPtiGJJOmga7-114" value="- idUser&lt;span style=&quot;white-space: pre;&quot;&gt;&#x9;&lt;/span&gt;: int" style="text;strokeColor=none;fillColor=none;align=left;verticalAlign=top;spacingLeft=4;spacingRight=4;overflow=hidden;rotatable=0;points=[[0,0.5],[1,0.5]];portConstraint=eastwest;whiteSpace=wrap;html=1;" parent="X-bIWE7srPtiGJJOmga7-113" vertex="1">
          <mxGeometry y="26" width="160" height="26" as="geometry" />
        </mxCell>
        <mxCell id="X-bIWE7srPtiGJJOmga7-136" value="- nama&amp;nbsp;&lt;span style=&quot;white-space: pre;&quot;&gt;&#x9;&lt;/span&gt;: string" style="text;strokeColor=none;fillColor=none;align=left;verticalAlign=top;spacingLeft=4;spacingRight=4;overflow=hidden;rotatable=0;points=[[0,0.5],[1,0.5]];portConstraint=eastwest;whiteSpace=wrap;html=1;" parent="X-bIWE7srPtiGJJOmga7-113" vertex="1">
          <mxGeometry y="52" width="160" height="26" as="geometry" />
        </mxCell>
        <mxCell id="X-bIWE7srPtiGJJOmga7-135" value="- username : string" style="text;strokeColor=none;fillColor=none;align=left;verticalAlign=top;spacingLeft=4;spacingRight=4;overflow=hidden;rotatable=0;points=[[0,0.5],[1,0.5]];portConstraint=eastwest;whiteSpace=wrap;html=1;" parent="X-bIWE7srPtiGJJOmga7-113" vertex="1">
          <mxGeometry y="78" width="160" height="26" as="geometry" />
        </mxCell>
        <mxCell id="X-bIWE7srPtiGJJOmga7-134" value="- password&amp;nbsp; : string" style="text;strokeColor=none;fillColor=none;align=left;verticalAlign=top;spacingLeft=4;spacingRight=4;overflow=hidden;rotatable=0;points=[[0,0.5],[1,0.5]];portConstraint=eastwest;whiteSpace=wrap;html=1;" parent="X-bIWE7srPtiGJJOmga7-113" vertex="1">
          <mxGeometry y="104" width="160" height="26" as="geometry" />
        </mxCell>
        <mxCell id="X-bIWE7srPtiGJJOmga7-133" value="- role&lt;span style=&quot;white-space: pre;&quot;&gt;&#x9;&lt;/span&gt;: string" style="text;strokeColor=none;fillColor=none;align=left;verticalAlign=top;spacingLeft=4;spacingRight=4;overflow=hidden;rotatable=0;points=[[0,0.5],[1,0.5]];portConstraint=eastwest;whiteSpace=wrap;html=1;" parent="X-bIWE7srPtiGJJOmga7-113" vertex="1">
          <mxGeometry y="130" width="160" height="26" as="geometry" />
        </mxCell>
        <mxCell id="X-bIWE7srPtiGJJOmga7-115" value="" style="line;strokeWidth=1;fillColor=none;align=left;verticalAlign=middle;spacingTop=-1;spacingLeft=3;spacingRight=3;rotatable=0;labelPosition=right;points=[];portConstraint=eastwest;strokeColor=inherit;" parent="X-bIWE7srPtiGJJOmga7-113" vertex="1">
          <mxGeometry y="156" width="160" height="8" as="geometry" />
        </mxCell>
        <mxCell id="X-bIWE7srPtiGJJOmga7-137" value="+ login()" style="text;strokeColor=none;fillColor=none;align=left;verticalAlign=top;spacingLeft=4;spacingRight=4;overflow=hidden;rotatable=0;points=[[0,0.5],[1,0.5]];portConstraint=eastwest;whiteSpace=wrap;html=1;" parent="X-bIWE7srPtiGJJOmga7-113" vertex="1">
          <mxGeometry y="164" width="160" height="26" as="geometry" />
        </mxCell>
        <mxCell id="X-bIWE7srPtiGJJOmga7-116" value="+ logout()" style="text;strokeColor=none;fillColor=none;align=left;verticalAlign=top;spacingLeft=4;spacingRight=4;overflow=hidden;rotatable=0;points=[[0,0.5],[1,0.5]];portConstraint=eastwest;whiteSpace=wrap;html=1;" parent="X-bIWE7srPtiGJJOmga7-113" vertex="1">
          <mxGeometry y="190" width="160" height="26" as="geometry" />
        </mxCell>
        <mxCell id="X-bIWE7srPtiGJJOmga7-117" value="Stok" style="swimlane;fontStyle=1;align=center;verticalAlign=top;childLayout=stackLayout;horizontal=1;startSize=26;horizontalStack=0;resizeParent=1;resizeParentMax=0;resizeLast=0;collapsible=1;marginBottom=0;whiteSpace=wrap;html=1;" parent="1" vertex="1">
          <mxGeometry x="920" y="820" width="160" height="216" as="geometry" />
        </mxCell>
        <mxCell id="X-bIWE7srPtiGJJOmga7-118" value="- idStok&lt;span style=&quot;white-space: pre;&quot;&gt;&#x9;&lt;/span&gt;: int" style="text;strokeColor=none;fillColor=none;align=left;verticalAlign=top;spacingLeft=4;spacingRight=4;overflow=hidden;rotatable=0;points=[[0,0.5],[1,0.5]];portConstraint=eastwest;whiteSpace=wrap;html=1;" parent="X-bIWE7srPtiGJJOmga7-117" vertex="1">
          <mxGeometry y="26" width="160" height="26" as="geometry" />
        </mxCell>
        <mxCell id="X-bIWE7srPtiGJJOmga7-124" value="- stok_Masuk : int" style="text;strokeColor=none;fillColor=none;align=left;verticalAlign=top;spacingLeft=4;spacingRight=4;overflow=hidden;rotatable=0;points=[[0,0.5],[1,0.5]];portConstraint=eastwest;whiteSpace=wrap;html=1;" parent="X-bIWE7srPtiGJJOmga7-117" vertex="1">
          <mxGeometry y="52" width="160" height="26" as="geometry" />
        </mxCell>
        <mxCell id="X-bIWE7srPtiGJJOmga7-123" value="- stok_Keluar : int" style="text;strokeColor=none;fillColor=none;align=left;verticalAlign=top;spacingLeft=4;spacingRight=4;overflow=hidden;rotatable=0;points=[[0,0.5],[1,0.5]];portConstraint=eastwest;whiteSpace=wrap;html=1;" parent="X-bIWE7srPtiGJJOmga7-117" vertex="1">
          <mxGeometry y="78" width="160" height="26" as="geometry" />
        </mxCell>
        <mxCell id="X-bIWE7srPtiGJJOmga7-122" value="- tgl_Update : date" style="text;strokeColor=none;fillColor=none;align=left;verticalAlign=top;spacingLeft=4;spacingRight=4;overflow=hidden;rotatable=0;points=[[0,0.5],[1,0.5]];portConstraint=eastwest;whiteSpace=wrap;html=1;" parent="X-bIWE7srPtiGJJOmga7-117" vertex="1">
          <mxGeometry y="104" width="160" height="26" as="geometry" />
        </mxCell>
        <mxCell id="X-bIWE7srPtiGJJOmga7-121" value="- idStok_Obat : int" style="text;strokeColor=none;fillColor=none;align=left;verticalAlign=top;spacingLeft=4;spacingRight=4;overflow=hidden;rotatable=0;points=[[0,0.5],[1,0.5]];portConstraint=eastwest;whiteSpace=wrap;html=1;" parent="X-bIWE7srPtiGJJOmga7-117" vertex="1">
          <mxGeometry y="130" width="160" height="26" as="geometry" />
        </mxCell>
        <mxCell id="X-bIWE7srPtiGJJOmga7-119" value="" style="line;strokeWidth=1;fillColor=none;align=left;verticalAlign=middle;spacingTop=-1;spacingLeft=3;spacingRight=3;rotatable=0;labelPosition=right;points=[];portConstraint=eastwest;strokeColor=inherit;" parent="X-bIWE7srPtiGJJOmga7-117" vertex="1">
          <mxGeometry y="156" width="160" height="8" as="geometry" />
        </mxCell>
        <mxCell id="X-bIWE7srPtiGJJOmga7-125" value="+ update_stok()" style="text;strokeColor=none;fillColor=none;align=left;verticalAlign=top;spacingLeft=4;spacingRight=4;overflow=hidden;rotatable=0;points=[[0,0.5],[1,0.5]];portConstraint=eastwest;whiteSpace=wrap;html=1;" parent="X-bIWE7srPtiGJJOmga7-117" vertex="1">
          <mxGeometry y="164" width="160" height="26" as="geometry" />
        </mxCell>
        <mxCell id="X-bIWE7srPtiGJJOmga7-120" value="+ cek_stok()" style="text;strokeColor=none;fillColor=none;align=left;verticalAlign=top;spacingLeft=4;spacingRight=4;overflow=hidden;rotatable=0;points=[[0,0.5],[1,0.5]];portConstraint=eastwest;whiteSpace=wrap;html=1;" parent="X-bIWE7srPtiGJJOmga7-117" vertex="1">
          <mxGeometry y="190" width="160" height="26" as="geometry" />
        </mxCell>
        <mxCell id="X-bIWE7srPtiGJJOmga7-140" value="1" style="text;html=1;align=center;verticalAlign=middle;resizable=0;points=[];autosize=1;strokeColor=none;fillColor=none;" parent="1" vertex="1">
          <mxGeometry x="870" y="746" width="30" height="30" as="geometry" />
        </mxCell>
        <mxCell id="X-bIWE7srPtiGJJOmga7-141" value="0...*" style="text;html=1;align=center;verticalAlign=middle;resizable=0;points=[];autosize=1;strokeColor=none;fillColor=none;" parent="1" vertex="1">
          <mxGeometry x="965" y="790" width="40" height="30" as="geometry" />
        </mxCell>
        <mxCell id="X-bIWE7srPtiGJJOmga7-142" value="0...*" style="text;html=1;align=center;verticalAlign=middle;resizable=0;points=[];autosize=1;strokeColor=none;fillColor=none;" parent="1" vertex="1">
          <mxGeometry x="1080" y="930" width="40" height="30" as="geometry" />
        </mxCell>
        <mxCell id="X-bIWE7srPtiGJJOmga7-143" value="1" style="text;html=1;align=center;verticalAlign=middle;resizable=0;points=[];autosize=1;strokeColor=none;fillColor=none;" parent="1" vertex="1">
          <mxGeometry x="1165" y="676" width="30" height="30" as="geometry" />
        </mxCell>
        <mxCell id="X-bIWE7srPtiGJJOmga7-144" value="Admin/Apoteker/staff gudang" style="shape=umlActor;verticalLabelPosition=bottom;verticalAlign=top;html=1;" parent="1" vertex="1">
          <mxGeometry x="1360" y="39.99999999999999" width="40" height="70" as="geometry" />
        </mxCell>
        <mxCell id="X-bIWE7srPtiGJJOmga7-145" value="Form login" style="shape=umlBoundary;whiteSpace=wrap;html=1;" parent="1" vertex="1">
          <mxGeometry x="1460" y="47.99999999999999" width="90" height="72" as="geometry" />
        </mxCell>
        <mxCell id="X-bIWE7srPtiGJJOmga7-146" value="Login" style="ellipse;shape=umlEntity;whiteSpace=wrap;html=1;" parent="1" vertex="1">
          <mxGeometry x="1695" y="49.99999999999999" width="70" height="70" as="geometry" />
        </mxCell>
        <mxCell id="X-bIWE7srPtiGJJOmga7-147" value="Verifikasi level akses" style="ellipse;shape=umlControl;whiteSpace=wrap;html=1;" parent="1" vertex="1">
          <mxGeometry x="1580" y="39.99999999999999" width="70" height="80" as="geometry" />
        </mxCell>
        <mxCell id="X-bIWE7srPtiGJJOmga7-148" value="Menu Dashboad" style="shape=umlBoundary;whiteSpace=wrap;html=1;" parent="1" vertex="1">
          <mxGeometry x="1800" y="49.99999999999999" width="90" height="74" as="geometry" />
        </mxCell>
        <mxCell id="X-bIWE7srPtiGJJOmga7-149" value="" style="endArrow=none;dashed=1;html=1;rounded=0;" parent="1" source="X-bIWE7srPtiGJJOmga7-152" edge="1">
          <mxGeometry width="50" height="50" relative="1" as="geometry">
            <mxPoint x="1380" y="130" as="sourcePoint" />
            <mxPoint x="1380" y="430" as="targetPoint" />
          </mxGeometry>
        </mxCell>
        <mxCell id="X-bIWE7srPtiGJJOmga7-150" value="" style="endArrow=none;dashed=1;html=1;rounded=0;" parent="1" target="X-bIWE7srPtiGJJOmga7-152" edge="1">
          <mxGeometry width="50" height="50" relative="1" as="geometry">
            <mxPoint x="1380" y="140" as="sourcePoint" />
            <mxPoint x="1380" y="550" as="targetPoint" />
          </mxGeometry>
        </mxCell>
        <mxCell id="X-bIWE7srPtiGJJOmga7-151" value="" style="edgeStyle=orthogonalEdgeStyle;rounded=0;orthogonalLoop=1;jettySize=auto;html=1;curved=0;" parent="1" source="X-bIWE7srPtiGJJOmga7-152" edge="1">
          <mxGeometry relative="1" as="geometry">
            <mxPoint x="1389" y="170" as="sourcePoint" />
            <mxPoint x="1504" y="170.00000000000006" as="targetPoint" />
            <Array as="points">
              <mxPoint x="1479" y="170" />
              <mxPoint x="1479" y="170" />
            </Array>
          </mxGeometry>
        </mxCell>
        <mxCell id="X-bIWE7srPtiGJJOmga7-152" value="" style="html=1;points=[[0,0,0,0,5],[0,1,0,0,-5],[1,0,0,0,5],[1,1,0,0,-5]];perimeter=orthogonalPerimeter;outlineConnect=0;targetShapes=umlLifeline;portConstraint=eastwest;newEdgeStyle={&quot;curved&quot;:0,&quot;rounded&quot;:0};" parent="1" vertex="1">
          <mxGeometry x="1374" y="170" width="10" height="250" as="geometry" />
        </mxCell>
        <mxCell id="X-bIWE7srPtiGJJOmga7-153" value="" style="endArrow=none;dashed=1;html=1;rounded=0;entryX=0.161;entryY=1.012;entryDx=0;entryDy=0;entryPerimeter=0;" parent="1" target="X-bIWE7srPtiGJJOmga7-163" edge="1">
          <mxGeometry width="50" height="50" relative="1" as="geometry">
            <mxPoint x="1510.0000000000002" y="200" as="sourcePoint" />
            <mxPoint x="1510" y="560" as="targetPoint" />
          </mxGeometry>
        </mxCell>
        <mxCell id="X-bIWE7srPtiGJJOmga7-154" value="" style="endArrow=none;dashed=1;html=1;rounded=0;" parent="1" edge="1">
          <mxGeometry width="50" height="50" relative="1" as="geometry">
            <mxPoint x="1510" y="140" as="sourcePoint" />
            <mxPoint x="1510.0000000000002" y="160" as="targetPoint" />
          </mxGeometry>
        </mxCell>
        <mxCell id="X-bIWE7srPtiGJJOmga7-155" value="" style="html=1;points=[[0,0,0,0,5],[0,1,0,0,-5],[1,0,0,0,5],[1,1,0,0,-5]];perimeter=orthogonalPerimeter;outlineConnect=0;targetShapes=umlLifeline;portConstraint=eastwest;newEdgeStyle={&quot;curved&quot;:0,&quot;rounded&quot;:0};" parent="1" vertex="1">
          <mxGeometry x="1504" y="170" width="10" height="250" as="geometry" />
        </mxCell>
        <mxCell id="X-bIWE7srPtiGJJOmga7-156" value="&lt;font style=&quot;font-size: 11px;&quot;&gt;Mengisi ID dan PASS&lt;/font&gt;" style="text;html=1;align=center;verticalAlign=middle;whiteSpace=wrap;rounded=0;" parent="1" vertex="1">
          <mxGeometry x="1389" y="150" width="110" height="20" as="geometry" />
        </mxCell>
        <mxCell id="X-bIWE7srPtiGJJOmga7-157" value="" style="endArrow=none;dashed=1;html=1;rounded=0;entryX=0.368;entryY=0.995;entryDx=0;entryDy=0;entryPerimeter=0;" parent="1" source="X-bIWE7srPtiGJJOmga7-161" target="X-bIWE7srPtiGJJOmga7-163" edge="1">
          <mxGeometry width="50" height="50" relative="1" as="geometry">
            <mxPoint x="1614.6400000000003" y="140" as="sourcePoint" />
            <mxPoint x="1615" y="560" as="targetPoint" />
          </mxGeometry>
        </mxCell>
        <mxCell id="X-bIWE7srPtiGJJOmga7-158" value="" style="endArrow=none;dashed=1;html=1;rounded=0;" parent="1" target="X-bIWE7srPtiGJJOmga7-161" edge="1">
          <mxGeometry width="50" height="50" relative="1" as="geometry">
            <mxPoint x="1614.6400000000003" y="140" as="sourcePoint" />
            <mxPoint x="1614.64" y="500" as="targetPoint" />
          </mxGeometry>
        </mxCell>
        <mxCell id="X-bIWE7srPtiGJJOmga7-159" value="" style="edgeStyle=orthogonalEdgeStyle;rounded=0;orthogonalLoop=1;jettySize=auto;html=1;curved=0;" parent="1" source="X-bIWE7srPtiGJJOmga7-161" target="X-bIWE7srPtiGJJOmga7-166" edge="1">
          <mxGeometry relative="1" as="geometry">
            <Array as="points">
              <mxPoint x="1690" y="230" />
              <mxPoint x="1690" y="230" />
            </Array>
          </mxGeometry>
        </mxCell>
        <mxCell id="X-bIWE7srPtiGJJOmga7-160" value="" style="edgeStyle=orthogonalEdgeStyle;rounded=0;orthogonalLoop=1;jettySize=auto;html=1;curved=0;" parent="1" source="X-bIWE7srPtiGJJOmga7-161" target="X-bIWE7srPtiGJJOmga7-171" edge="1">
          <mxGeometry relative="1" as="geometry">
            <mxPoint x="1700" y="359.9999999999999" as="targetPoint" />
            <Array as="points">
              <mxPoint x="1680" y="310" />
              <mxPoint x="1680" y="310" />
            </Array>
          </mxGeometry>
        </mxCell>
        <mxCell id="X-bIWE7srPtiGJJOmga7-161" value="" style="html=1;points=[[0,0,0,0,5],[0,1,0,0,-5],[1,0,0,0,5],[1,1,0,0,-5]];perimeter=orthogonalPerimeter;outlineConnect=0;targetShapes=umlLifeline;portConstraint=eastwest;newEdgeStyle={&quot;curved&quot;:0,&quot;rounded&quot;:0};" parent="1" vertex="1">
          <mxGeometry x="1610" y="200" width="10" height="220" as="geometry" />
        </mxCell>
        <mxCell id="X-bIWE7srPtiGJJOmga7-162" style="edgeStyle=orthogonalEdgeStyle;rounded=0;orthogonalLoop=1;jettySize=auto;html=1;curved=0;exitX=1;exitY=1;exitDx=0;exitDy=-5;exitPerimeter=0;entryX=0;entryY=0;entryDx=0;entryDy=5;entryPerimeter=0;" parent="1" source="X-bIWE7srPtiGJJOmga7-155" target="X-bIWE7srPtiGJJOmga7-161" edge="1">
          <mxGeometry relative="1" as="geometry">
            <Array as="points">
              <mxPoint x="1514" y="205" />
            </Array>
          </mxGeometry>
        </mxCell>
        <mxCell id="X-bIWE7srPtiGJJOmga7-163" value="pin valid?" style="shape=umlFrame;whiteSpace=wrap;html=1;pointerEvents=0;width=60;height=20;fillColor=#f8cecc;strokeColor=#b85450;" parent="1" vertex="1">
          <mxGeometry x="1430" y="280" width="500" height="150" as="geometry" />
        </mxCell>
        <mxCell id="X-bIWE7srPtiGJJOmga7-164" value="" style="endArrow=none;dashed=1;html=1;rounded=0;entryX=0.596;entryY=0.991;entryDx=0;entryDy=0;entryPerimeter=0;" parent="1" source="X-bIWE7srPtiGJJOmga7-173" target="X-bIWE7srPtiGJJOmga7-163" edge="1">
          <mxGeometry width="50" height="50" relative="1" as="geometry">
            <mxPoint x="1729.6400000000003" y="240.00000000000003" as="sourcePoint" />
            <mxPoint x="1730" y="420" as="targetPoint" />
          </mxGeometry>
        </mxCell>
        <mxCell id="X-bIWE7srPtiGJJOmga7-165" value="" style="endArrow=none;dashed=1;html=1;rounded=0;" parent="1" target="X-bIWE7srPtiGJJOmga7-166" edge="1">
          <mxGeometry width="50" height="50" relative="1" as="geometry">
            <mxPoint x="1729.6400000000003" y="140" as="sourcePoint" />
            <mxPoint x="1760" y="170" as="targetPoint" />
          </mxGeometry>
        </mxCell>
        <mxCell id="X-bIWE7srPtiGJJOmga7-166" value="" style="html=1;points=[[0,0,0,0,5],[0,1,0,0,-5],[1,0,0,0,5],[1,1,0,0,-5]];perimeter=orthogonalPerimeter;outlineConnect=0;targetShapes=umlLifeline;portConstraint=eastwest;newEdgeStyle={&quot;curved&quot;:0,&quot;rounded&quot;:0};" parent="1" vertex="1">
          <mxGeometry x="1725" y="230" width="10" height="20" as="geometry" />
        </mxCell>
        <mxCell id="X-bIWE7srPtiGJJOmga7-167" value="&lt;font style=&quot;font-size: 11px;&quot;&gt;Verifikasi akses&lt;/font&gt;" style="text;html=1;align=center;verticalAlign=middle;whiteSpace=wrap;rounded=0;" parent="1" vertex="1">
          <mxGeometry x="1514" y="187" width="86" height="20" as="geometry" />
        </mxCell>
        <mxCell id="X-bIWE7srPtiGJJOmga7-168" value="" style="endArrow=none;dashed=1;html=1;rounded=0;entryX=0.84;entryY=0.991;entryDx=0;entryDy=0;entryPerimeter=0;" parent="1" source="X-bIWE7srPtiGJJOmga7-171" target="X-bIWE7srPtiGJJOmga7-163" edge="1">
          <mxGeometry width="50" height="50" relative="1" as="geometry">
            <mxPoint x="1850.0000000000002" y="140" as="sourcePoint" />
            <mxPoint x="1850" y="561" as="targetPoint" />
          </mxGeometry>
        </mxCell>
        <mxCell id="X-bIWE7srPtiGJJOmga7-169" value="" style="endArrow=none;dashed=1;html=1;rounded=0;exitX=0.001;exitY=0.398;exitDx=0;exitDy=0;exitPerimeter=0;entryX=0.995;entryY=0.536;entryDx=0;entryDy=0;entryPerimeter=0;" parent="1" target="X-bIWE7srPtiGJJOmga7-163" edge="1">
          <mxGeometry width="50" height="50" relative="1" as="geometry">
            <mxPoint x="1430" y="359.66999999999996" as="sourcePoint" />
            <mxPoint x="1920" y="360" as="targetPoint" />
          </mxGeometry>
        </mxCell>
        <mxCell id="X-bIWE7srPtiGJJOmga7-170" value="" style="endArrow=none;dashed=1;html=1;rounded=0;" parent="1" target="X-bIWE7srPtiGJJOmga7-171" edge="1">
          <mxGeometry width="50" height="50" relative="1" as="geometry">
            <mxPoint x="1850.0000000000002" y="140" as="sourcePoint" />
            <mxPoint x="1850" y="561" as="targetPoint" />
          </mxGeometry>
        </mxCell>
        <mxCell id="X-bIWE7srPtiGJJOmga7-171" value="" style="html=1;points=[[0,0,0,0,5],[0,1,0,0,-5],[1,0,0,0,5],[1,1,0,0,-5]];perimeter=orthogonalPerimeter;outlineConnect=0;targetShapes=umlLifeline;portConstraint=eastwest;newEdgeStyle={&quot;curved&quot;:0,&quot;rounded&quot;:0};" parent="1" vertex="1">
          <mxGeometry x="1845" y="310" width="10" height="20" as="geometry" />
        </mxCell>
        <mxCell id="X-bIWE7srPtiGJJOmga7-172" value="" style="endArrow=none;dashed=1;html=1;rounded=0;" parent="1" source="X-bIWE7srPtiGJJOmga7-166" target="X-bIWE7srPtiGJJOmga7-173" edge="1">
          <mxGeometry width="50" height="50" relative="1" as="geometry">
            <mxPoint x="1730" y="250.00000000000003" as="sourcePoint" />
            <mxPoint x="1730" y="560" as="targetPoint" />
          </mxGeometry>
        </mxCell>
        <mxCell id="X-bIWE7srPtiGJJOmga7-173" value="&lt;font style=&quot;font-size: 11px;&quot;&gt;Menampilkan ( )&lt;/font&gt;" style="text;html=1;align=center;verticalAlign=middle;whiteSpace=wrap;rounded=0;" parent="1" vertex="1">
          <mxGeometry x="1684" y="290" width="86" height="20" as="geometry" />
        </mxCell>
        <mxCell id="X-bIWE7srPtiGJJOmga7-174" value="Level akses?" style="shape=umlFrame;whiteSpace=wrap;html=1;pointerEvents=0;width=86;height=20;fillColor=#d5e8d4;strokeColor=#82b366;" parent="1" vertex="1">
          <mxGeometry x="1520" y="290" width="396" height="60" as="geometry" />
        </mxCell>
        <mxCell id="X-bIWE7srPtiGJJOmga7-175" value="YES" style="text;html=1;align=center;verticalAlign=middle;whiteSpace=wrap;rounded=0;" parent="1" vertex="1">
          <mxGeometry x="1440" y="310" width="40" height="30" as="geometry" />
        </mxCell>
        <mxCell id="X-bIWE7srPtiGJJOmga7-176" value="NO" style="text;html=1;align=center;verticalAlign=middle;whiteSpace=wrap;rounded=0;" parent="1" vertex="1">
          <mxGeometry x="1440" y="365" width="40" height="30" as="geometry" />
        </mxCell>
        <mxCell id="X-bIWE7srPtiGJJOmga7-177" value="" style="endArrow=classic;html=1;rounded=0;entryX=1;entryY=0;entryDx=0;entryDy=5;entryPerimeter=0;" parent="1" target="X-bIWE7srPtiGJJOmga7-178" edge="1">
          <mxGeometry width="50" height="50" relative="1" as="geometry">
            <mxPoint x="1610" y="395" as="sourcePoint" />
            <mxPoint x="1530" y="395" as="targetPoint" />
          </mxGeometry>
        </mxCell>
        <mxCell id="X-bIWE7srPtiGJJOmga7-178" value="" style="html=1;points=[[0,0,0,0,5],[0,1,0,0,-5],[1,0,0,0,5],[1,1,0,0,-5]];perimeter=orthogonalPerimeter;outlineConnect=0;targetShapes=umlLifeline;portConstraint=eastwest;newEdgeStyle={&quot;curved&quot;:0,&quot;rounded&quot;:0};" parent="1" vertex="1">
          <mxGeometry x="1510" y="390" width="10" height="10" as="geometry" />
        </mxCell>
        <mxCell id="X-bIWE7srPtiGJJOmga7-179" value="&lt;span style=&quot;font-size: 11px;&quot;&gt;Tampilkan ( )&lt;/span&gt;" style="text;html=1;align=center;verticalAlign=middle;whiteSpace=wrap;rounded=0;" parent="1" vertex="1">
          <mxGeometry x="1524" y="375" width="86" height="20" as="geometry" />
        </mxCell>
        <mxCell id="X-bIWE7srPtiGJJOmga7-180" value="staff gudang" style="text;html=1;align=center;verticalAlign=middle;whiteSpace=wrap;rounded=0;" parent="1" vertex="1">
          <mxGeometry x="1524" y="315" width="40" height="20" as="geometry" />
        </mxCell>
        <mxCell id="X-bIWE7srPtiGJJOmga7-181" value="&lt;font style=&quot;font-size: 11px;&quot;&gt;Masuk&lt;/font&gt;" style="text;html=1;align=center;verticalAlign=middle;whiteSpace=wrap;rounded=0;" parent="1" vertex="1">
          <mxGeometry x="1630" y="210" width="86" height="20" as="geometry" />
        </mxCell>
        <mxCell id="X-bIWE7srPtiGJJOmga7-200" value="" style="group" parent="1" vertex="1" connectable="0">
          <mxGeometry x="1360" y="530" width="450" height="395" as="geometry" />
        </mxCell>
        <mxCell id="X-bIWE7srPtiGJJOmga7-182" value="Admin/Apoteker/staff gudang" style="shape=umlActor;verticalLabelPosition=bottom;verticalAlign=top;html=1;" parent="X-bIWE7srPtiGJJOmga7-200" vertex="1">
          <mxGeometry y="6.9298245614035086" width="52.17391304347826" height="97.01754385964912" as="geometry" />
        </mxCell>
        <mxCell id="X-bIWE7srPtiGJJOmga7-183" value="" style="endArrow=none;dashed=1;html=1;rounded=0;" parent="X-bIWE7srPtiGJJOmga7-200" source="X-bIWE7srPtiGJJOmga7-185" edge="1">
          <mxGeometry width="50" height="50" relative="1" as="geometry">
            <mxPoint x="26.08695652173913" y="561.3157894736843" as="sourcePoint" />
            <mxPoint x="26.08695652173913" y="145.5263157894737" as="targetPoint" />
          </mxGeometry>
        </mxCell>
        <mxCell id="X-bIWE7srPtiGJJOmga7-184" value="" style="endArrow=none;dashed=1;html=1;rounded=0;" parent="X-bIWE7srPtiGJJOmga7-200" target="X-bIWE7srPtiGJJOmga7-185" edge="1">
          <mxGeometry width="50" height="50" relative="1" as="geometry">
            <mxPoint x="26.08695652173913" y="395" as="sourcePoint" />
            <mxPoint x="26.08695652173913" y="145.5263157894737" as="targetPoint" />
          </mxGeometry>
        </mxCell>
        <mxCell id="X-bIWE7srPtiGJJOmga7-185" value="" style="html=1;points=[[0,0,0,0,5],[0,1,0,0,-5],[1,0,0,0,5],[1,1,0,0,-5]];perimeter=orthogonalPerimeter;outlineConnect=0;targetShapes=umlLifeline;portConstraint=eastwest;newEdgeStyle={&quot;curved&quot;:0,&quot;rounded&quot;:0};" parent="X-bIWE7srPtiGJJOmga7-200" vertex="1">
          <mxGeometry x="19.565217391304348" y="166.31578947368422" width="13.043478260869565" height="200.96491228070175" as="geometry" />
        </mxCell>
        <mxCell id="X-bIWE7srPtiGJJOmga7-186" value="Menu Dashboad" style="shape=umlBoundary;whiteSpace=wrap;html=1;" parent="X-bIWE7srPtiGJJOmga7-200" vertex="1">
          <mxGeometry x="71.73913043478262" y="11.087719298245615" width="117.39130434782608" height="102.56140350877193" as="geometry" />
        </mxCell>
        <mxCell id="X-bIWE7srPtiGJJOmga7-187" value="Verifikasi level akses" style="ellipse;shape=umlControl;whiteSpace=wrap;html=1;" parent="X-bIWE7srPtiGJJOmga7-200" vertex="1">
          <mxGeometry x="215.21739130434784" width="91.30434782608695" height="110.87719298245614" as="geometry" />
        </mxCell>
        <mxCell id="X-bIWE7srPtiGJJOmga7-188" value="Form login" style="shape=umlBoundary;whiteSpace=wrap;html=1;" parent="X-bIWE7srPtiGJJOmga7-200" vertex="1">
          <mxGeometry x="332.60869565217394" y="13.859649122807017" width="117.39130434782608" height="99.78947368421053" as="geometry" />
        </mxCell>
        <mxCell id="X-bIWE7srPtiGJJOmga7-189" value="" style="endArrow=none;dashed=1;html=1;rounded=0;" parent="X-bIWE7srPtiGJJOmga7-200" source="X-bIWE7srPtiGJJOmga7-191" edge="1">
          <mxGeometry width="50" height="50" relative="1" as="geometry">
            <mxPoint x="142.17391304347828" y="616.7543859649123" as="sourcePoint" />
            <mxPoint x="142.17391304347856" y="145.5263157894737" as="targetPoint" />
          </mxGeometry>
        </mxCell>
        <mxCell id="X-bIWE7srPtiGJJOmga7-190" value="" style="endArrow=none;dashed=1;html=1;rounded=0;" parent="X-bIWE7srPtiGJJOmga7-200" target="X-bIWE7srPtiGJJOmga7-191" edge="1">
          <mxGeometry width="50" height="50" relative="1" as="geometry">
            <mxPoint x="142.17391304347828" y="395" as="sourcePoint" />
            <mxPoint x="142.17391304347856" y="145.5263157894737" as="targetPoint" />
          </mxGeometry>
        </mxCell>
        <mxCell id="X-bIWE7srPtiGJJOmga7-191" value="" style="html=1;points=[[0,0,0,0,5],[0,1,0,0,-5],[1,0,0,0,5],[1,1,0,0,-5]];perimeter=orthogonalPerimeter;outlineConnect=0;targetShapes=umlLifeline;portConstraint=eastwest;newEdgeStyle={&quot;curved&quot;:0,&quot;rounded&quot;:0};" parent="X-bIWE7srPtiGJJOmga7-200" vertex="1">
          <mxGeometry x="136.95652173913047" y="166.31578947368422" width="13.043478260869565" height="200.96491228070175" as="geometry" />
        </mxCell>
        <mxCell id="X-bIWE7srPtiGJJOmga7-192" value="Pilih logout" style="html=1;verticalAlign=bottom;endArrow=block;curved=0;rounded=0;" parent="X-bIWE7srPtiGJJOmga7-200" source="X-bIWE7srPtiGJJOmga7-185" edge="1">
          <mxGeometry width="80" relative="1" as="geometry">
            <mxPoint x="3.91304347826087" y="166.31578947368422" as="sourcePoint" />
            <mxPoint x="136.95652173913047" y="166.31578947368422" as="targetPoint" />
          </mxGeometry>
        </mxCell>
        <mxCell id="X-bIWE7srPtiGJJOmga7-193" value="" style="endArrow=none;dashed=1;html=1;rounded=0;" parent="X-bIWE7srPtiGJJOmga7-200" edge="1">
          <mxGeometry width="50" height="50" relative="1" as="geometry">
            <mxPoint x="260.86956521739137" y="395" as="sourcePoint" />
            <mxPoint x="260.4260869565219" y="145.5263157894737" as="targetPoint" />
          </mxGeometry>
        </mxCell>
        <mxCell id="X-bIWE7srPtiGJJOmga7-194" value="" style="html=1;points=[[0,0,0,0,5],[0,1,0,0,-5],[1,0,0,0,5],[1,1,0,0,-5]];perimeter=orthogonalPerimeter;outlineConnect=0;targetShapes=umlLifeline;portConstraint=eastwest;newEdgeStyle={&quot;curved&quot;:0,&quot;rounded&quot;:0};" parent="X-bIWE7srPtiGJJOmga7-200" vertex="1">
          <mxGeometry x="254.34782608695653" y="228.6842105263158" width="13.043478260869565" height="138.5964912280702" as="geometry" />
        </mxCell>
        <mxCell id="X-bIWE7srPtiGJJOmga7-195" value="Logout ( )" style="html=1;verticalAlign=bottom;endArrow=block;curved=0;rounded=0;" parent="X-bIWE7srPtiGJJOmga7-200" source="X-bIWE7srPtiGJJOmga7-191" edge="1">
          <mxGeometry width="80" relative="1" as="geometry">
            <mxPoint x="121.30434782608695" y="228.21298245614028" as="sourcePoint" />
            <mxPoint x="254.34782608695653" y="228.21298245614028" as="targetPoint" />
            <mxPoint as="offset" />
          </mxGeometry>
        </mxCell>
        <mxCell id="X-bIWE7srPtiGJJOmga7-196" value="Tampilkan ( )" style="html=1;verticalAlign=bottom;endArrow=block;curved=0;rounded=0;entryX=0;entryY=0;entryDx=0;entryDy=5;entryPerimeter=0;" parent="X-bIWE7srPtiGJJOmga7-200" target="X-bIWE7srPtiGJJOmga7-199" edge="1">
          <mxGeometry width="80" relative="1" as="geometry">
            <mxPoint x="267.3913043478261" y="284.59403508771936" as="sourcePoint" />
            <mxPoint x="371.7391304347826" y="284.12280701754383" as="targetPoint" />
          </mxGeometry>
        </mxCell>
        <mxCell id="X-bIWE7srPtiGJJOmga7-197" value="" style="endArrow=none;dashed=1;html=1;rounded=0;" parent="X-bIWE7srPtiGJJOmga7-200" source="X-bIWE7srPtiGJJOmga7-199" edge="1">
          <mxGeometry width="50" height="50" relative="1" as="geometry">
            <mxPoint x="391.30434782608694" y="616.7543859649123" as="sourcePoint" />
            <mxPoint x="390.8608695652175" y="145.5263157894737" as="targetPoint" />
          </mxGeometry>
        </mxCell>
        <mxCell id="X-bIWE7srPtiGJJOmga7-198" value="" style="endArrow=none;dashed=1;html=1;rounded=0;" parent="X-bIWE7srPtiGJJOmga7-200" target="X-bIWE7srPtiGJJOmga7-199" edge="1">
          <mxGeometry width="50" height="50" relative="1" as="geometry">
            <mxPoint x="391.30434782608694" y="395" as="sourcePoint" />
            <mxPoint x="390.8608695652175" y="145.5263157894737" as="targetPoint" />
          </mxGeometry>
        </mxCell>
        <mxCell id="X-bIWE7srPtiGJJOmga7-199" value="" style="html=1;points=[[0,0,0,0,5],[0,1,0,0,-5],[1,0,0,0,5],[1,1,0,0,-5]];perimeter=orthogonalPerimeter;outlineConnect=0;targetShapes=umlLifeline;portConstraint=eastwest;newEdgeStyle={&quot;curved&quot;:0,&quot;rounded&quot;:0};" parent="X-bIWE7srPtiGJJOmga7-200" vertex="1">
          <mxGeometry x="384.7826086956522" y="277.1929824561404" width="13.043478260869565" height="90.08771929824562" as="geometry" />
        </mxCell>
        <mxCell id="0K_7OPFD4pcJ4QNf9owB-1" value="Pembelian / penerimaan obat" style="shape=umlBoundary;whiteSpace=wrap;html=1;" vertex="1" parent="1">
          <mxGeometry x="2190" y="98" width="90" height="72" as="geometry" />
        </mxCell>
        <mxCell id="0K_7OPFD4pcJ4QNf9owB-2" value="Menu Tambah Obat&amp;nbsp;" style="shape=umlBoundary;whiteSpace=wrap;html=1;" vertex="1" parent="1">
          <mxGeometry x="2300" y="98" width="90" height="72" as="geometry" />
        </mxCell>
        <mxCell id="0K_7OPFD4pcJ4QNf9owB-3" value="Database" style="ellipse;shape=umlEntity;whiteSpace=wrap;html=1;" vertex="1" parent="1">
          <mxGeometry x="2545" y="92" width="70" height="70" as="geometry" />
        </mxCell>
        <mxCell id="0K_7OPFD4pcJ4QNf9owB-4" value="Admin/Apoteker" style="shape=umlActor;verticalLabelPosition=bottom;verticalAlign=top;html=1;" vertex="1" parent="1">
          <mxGeometry x="1990" y="90" width="40" height="70" as="geometry" />
        </mxCell>
        <mxCell id="0K_7OPFD4pcJ4QNf9owB-5" value="" style="endArrow=none;dashed=1;html=1;rounded=0;" edge="1" parent="1" source="0K_7OPFD4pcJ4QNf9owB-12">
          <mxGeometry width="50" height="50" relative="1" as="geometry">
            <mxPoint x="2010" y="490" as="sourcePoint" />
            <mxPoint x="2010" y="190" as="targetPoint" />
          </mxGeometry>
        </mxCell>
        <mxCell id="0K_7OPFD4pcJ4QNf9owB-6" value="" style="endArrow=none;dashed=1;html=1;rounded=0;" edge="1" parent="1" source="0K_7OPFD4pcJ4QNf9owB-14">
          <mxGeometry width="50" height="50" relative="1" as="geometry">
            <mxPoint x="2120" y="490" as="sourcePoint" />
            <mxPoint x="2120" y="190" as="targetPoint" />
          </mxGeometry>
        </mxCell>
        <mxCell id="0K_7OPFD4pcJ4QNf9owB-7" value="" style="endArrow=none;dashed=1;html=1;rounded=0;" edge="1" parent="1" source="0K_7OPFD4pcJ4QNf9owB-17">
          <mxGeometry width="50" height="50" relative="1" as="geometry">
            <mxPoint x="2240" y="490" as="sourcePoint" />
            <mxPoint x="2240" y="190" as="targetPoint" />
          </mxGeometry>
        </mxCell>
        <mxCell id="0K_7OPFD4pcJ4QNf9owB-8" value="" style="endArrow=none;dashed=1;html=1;rounded=0;" edge="1" parent="1">
          <mxGeometry width="50" height="50" relative="1" as="geometry">
            <mxPoint x="2460" y="530" as="sourcePoint" />
            <mxPoint x="2459.62" y="190" as="targetPoint" />
          </mxGeometry>
        </mxCell>
        <mxCell id="0K_7OPFD4pcJ4QNf9owB-9" value="Menu Dashboard" style="shape=umlBoundary;whiteSpace=wrap;html=1;" vertex="1" parent="1">
          <mxGeometry x="2070" y="98" width="90" height="72" as="geometry" />
        </mxCell>
        <mxCell id="0K_7OPFD4pcJ4QNf9owB-10" value="" style="endArrow=none;dashed=1;html=1;rounded=0;" edge="1" parent="1" source="0K_7OPFD4pcJ4QNf9owB-33">
          <mxGeometry width="50" height="50" relative="1" as="geometry">
            <mxPoint x="2579.55" y="490" as="sourcePoint" />
            <mxPoint x="2579.55" y="190" as="targetPoint" />
          </mxGeometry>
        </mxCell>
        <mxCell id="0K_7OPFD4pcJ4QNf9owB-11" value="" style="endArrow=none;dashed=1;html=1;rounded=0;" edge="1" parent="1" target="0K_7OPFD4pcJ4QNf9owB-12">
          <mxGeometry width="50" height="50" relative="1" as="geometry">
            <mxPoint x="2010" y="530" as="sourcePoint" />
            <mxPoint x="2010" y="190" as="targetPoint" />
          </mxGeometry>
        </mxCell>
        <mxCell id="0K_7OPFD4pcJ4QNf9owB-12" value="" style="html=1;points=[[0,0,0,0,5],[0,1,0,0,-5],[1,0,0,0,5],[1,1,0,0,-5]];perimeter=orthogonalPerimeter;outlineConnect=0;targetShapes=umlLifeline;portConstraint=eastwest;newEdgeStyle={&quot;curved&quot;:0,&quot;rounded&quot;:0};" vertex="1" parent="1">
          <mxGeometry x="2004" y="230" width="10" height="290" as="geometry" />
        </mxCell>
        <mxCell id="0K_7OPFD4pcJ4QNf9owB-13" value="" style="endArrow=none;dashed=1;html=1;rounded=0;" edge="1" parent="1" target="0K_7OPFD4pcJ4QNf9owB-14">
          <mxGeometry width="50" height="50" relative="1" as="geometry">
            <mxPoint x="2120" y="530" as="sourcePoint" />
            <mxPoint x="2120" y="190" as="targetPoint" />
          </mxGeometry>
        </mxCell>
        <mxCell id="0K_7OPFD4pcJ4QNf9owB-14" value="" style="html=1;points=[[0,0,0,0,5],[0,1,0,0,-5],[1,0,0,0,5],[1,1,0,0,-5]];perimeter=orthogonalPerimeter;outlineConnect=0;targetShapes=umlLifeline;portConstraint=eastwest;newEdgeStyle={&quot;curved&quot;:0,&quot;rounded&quot;:0};" vertex="1" parent="1">
          <mxGeometry x="2114" y="230" width="10" height="30" as="geometry" />
        </mxCell>
        <mxCell id="0K_7OPFD4pcJ4QNf9owB-15" value="Memilih menu&lt;br&gt;Pembelia/penerimaan&amp;nbsp;&lt;br&gt;obat" style="html=1;verticalAlign=bottom;endArrow=block;curved=0;rounded=0;fontSize=10;" edge="1" parent="1">
          <mxGeometry width="80" relative="1" as="geometry">
            <mxPoint x="2014" y="230" as="sourcePoint" />
            <mxPoint x="2114" y="230" as="targetPoint" />
          </mxGeometry>
        </mxCell>
        <mxCell id="0K_7OPFD4pcJ4QNf9owB-16" value="" style="endArrow=none;dashed=1;html=1;rounded=0;" edge="1" parent="1" source="0K_7OPFD4pcJ4QNf9owB-25" target="0K_7OPFD4pcJ4QNf9owB-17">
          <mxGeometry width="50" height="50" relative="1" as="geometry">
            <mxPoint x="2240" y="490" as="sourcePoint" />
            <mxPoint x="2240" y="190" as="targetPoint" />
          </mxGeometry>
        </mxCell>
        <mxCell id="0K_7OPFD4pcJ4QNf9owB-17" value="" style="html=1;points=[[0,0,0,0,5],[0,1,0,0,-5],[1,0,0,0,5],[1,1,0,0,-5]];perimeter=orthogonalPerimeter;outlineConnect=0;targetShapes=umlLifeline;portConstraint=eastwest;newEdgeStyle={&quot;curved&quot;:0,&quot;rounded&quot;:0};" vertex="1" parent="1">
          <mxGeometry x="2235" y="255" width="10" height="25" as="geometry" />
        </mxCell>
        <mxCell id="0K_7OPFD4pcJ4QNf9owB-18" value="" style="endArrow=none;dashed=1;html=1;rounded=0;" edge="1" parent="1" source="0K_7OPFD4pcJ4QNf9owB-36">
          <mxGeometry width="50" height="50" relative="1" as="geometry">
            <mxPoint x="2348" y="530" as="sourcePoint" />
            <mxPoint x="2348" y="190" as="targetPoint" />
          </mxGeometry>
        </mxCell>
        <mxCell id="0K_7OPFD4pcJ4QNf9owB-19" value="" style="html=1;points=[[0,0,0,0,5],[0,1,0,0,-5],[1,0,0,0,5],[1,1,0,0,-5]];perimeter=orthogonalPerimeter;outlineConnect=0;targetShapes=umlLifeline;portConstraint=eastwest;newEdgeStyle={&quot;curved&quot;:0,&quot;rounded&quot;:0};" vertex="1" parent="1">
          <mxGeometry x="2454" y="390" width="10" height="25" as="geometry" />
        </mxCell>
        <mxCell id="0K_7OPFD4pcJ4QNf9owB-20" value="Tampilkan ( )" style="html=1;verticalAlign=bottom;endArrow=block;curved=0;rounded=0;" edge="1" parent="1" target="0K_7OPFD4pcJ4QNf9owB-19">
          <mxGeometry width="80" relative="1" as="geometry">
            <mxPoint x="2352" y="390" as="sourcePoint" />
            <mxPoint x="2450" y="390" as="targetPoint" />
          </mxGeometry>
        </mxCell>
        <mxCell id="0K_7OPFD4pcJ4QNf9owB-21" value="Form Tambah obat" style="shape=umlBoundary;whiteSpace=wrap;html=1;" vertex="1" parent="1">
          <mxGeometry x="2410" y="98" width="90" height="72" as="geometry" />
        </mxCell>
        <mxCell id="0K_7OPFD4pcJ4QNf9owB-22" value="Memilih Menu&lt;br&gt;Tambah Obat&amp;nbsp;" style="html=1;verticalAlign=bottom;endArrow=block;curved=0;rounded=0;entryX=0;entryY=0;entryDx=0;entryDy=5;entryPerimeter=0;" edge="1" parent="1" target="0K_7OPFD4pcJ4QNf9owB-25">
          <mxGeometry width="80" relative="1" as="geometry">
            <mxPoint x="2014" y="314.16999999999996" as="sourcePoint" />
            <mxPoint x="2125" y="314.16999999999996" as="targetPoint" />
          </mxGeometry>
        </mxCell>
        <mxCell id="0K_7OPFD4pcJ4QNf9owB-23" value="Tampilkan ( )" style="html=1;verticalAlign=bottom;endArrow=block;curved=0;rounded=0;" edge="1" parent="1" target="0K_7OPFD4pcJ4QNf9owB-17">
          <mxGeometry x="-0.003" width="80" relative="1" as="geometry">
            <mxPoint x="2123" y="255" as="sourcePoint" />
            <mxPoint x="2225" y="255" as="targetPoint" />
            <mxPoint as="offset" />
          </mxGeometry>
        </mxCell>
        <mxCell id="0K_7OPFD4pcJ4QNf9owB-24" value="" style="endArrow=none;dashed=1;html=1;rounded=0;" edge="1" parent="1" target="0K_7OPFD4pcJ4QNf9owB-25">
          <mxGeometry width="50" height="50" relative="1" as="geometry">
            <mxPoint x="2240" y="530" as="sourcePoint" />
            <mxPoint x="2240" y="280" as="targetPoint" />
          </mxGeometry>
        </mxCell>
        <mxCell id="0K_7OPFD4pcJ4QNf9owB-25" value="" style="html=1;points=[[0,0,0,0,5],[0,1,0,0,-5],[1,0,0,0,5],[1,1,0,0,-5]];perimeter=orthogonalPerimeter;outlineConnect=0;targetShapes=umlLifeline;portConstraint=eastwest;newEdgeStyle={&quot;curved&quot;:0,&quot;rounded&quot;:0};" vertex="1" parent="1">
          <mxGeometry x="2235" y="310" width="10" height="30" as="geometry" />
        </mxCell>
        <mxCell id="0K_7OPFD4pcJ4QNf9owB-26" value="" style="html=1;points=[[0,0,0,0,5],[0,1,0,0,-5],[1,0,0,0,5],[1,1,0,0,-5]];perimeter=orthogonalPerimeter;outlineConnect=0;targetShapes=umlLifeline;portConstraint=eastwest;newEdgeStyle={&quot;curved&quot;:0,&quot;rounded&quot;:0};" vertex="1" parent="1">
          <mxGeometry x="2342" y="330" width="10" height="25" as="geometry" />
        </mxCell>
        <mxCell id="0K_7OPFD4pcJ4QNf9owB-27" value="Tampilkan ( )" style="html=1;verticalAlign=bottom;endArrow=block;curved=0;rounded=0;" edge="1" parent="1" source="0K_7OPFD4pcJ4QNf9owB-25" target="0K_7OPFD4pcJ4QNf9owB-26">
          <mxGeometry x="-0.003" width="80" relative="1" as="geometry">
            <mxPoint x="2250" y="330" as="sourcePoint" />
            <mxPoint x="2332" y="330" as="targetPoint" />
            <mxPoint as="offset" />
          </mxGeometry>
        </mxCell>
        <mxCell id="0K_7OPFD4pcJ4QNf9owB-28" value="Mengisi Form Tambah Obat" style="html=1;verticalAlign=bottom;endArrow=block;curved=0;rounded=0;entryX=0;entryY=0;entryDx=0;entryDy=5;entryPerimeter=0;" edge="1" parent="1" source="0K_7OPFD4pcJ4QNf9owB-12" target="0K_7OPFD4pcJ4QNf9owB-29">
          <mxGeometry x="0.0021" width="80" relative="1" as="geometry">
            <mxPoint x="2121" y="374.16999999999996" as="sourcePoint" />
            <mxPoint x="2232" y="374.16999999999996" as="targetPoint" />
            <mxPoint as="offset" />
          </mxGeometry>
        </mxCell>
        <mxCell id="0K_7OPFD4pcJ4QNf9owB-29" value="" style="html=1;points=[[0,0,0,0,5],[0,1,0,0,-5],[1,0,0,0,5],[1,1,0,0,-5]];perimeter=orthogonalPerimeter;outlineConnect=0;targetShapes=umlLifeline;portConstraint=eastwest;newEdgeStyle={&quot;curved&quot;:0,&quot;rounded&quot;:0};" vertex="1" parent="1">
          <mxGeometry x="2342" y="370" width="10" height="30" as="geometry" />
        </mxCell>
        <mxCell id="0K_7OPFD4pcJ4QNf9owB-30" value="Menyimpan data stok obat" style="html=1;verticalAlign=bottom;endArrow=block;curved=0;rounded=0;entryX=0;entryY=0;entryDx=0;entryDy=5;entryPerimeter=0;" edge="1" parent="1" source="0K_7OPFD4pcJ4QNf9owB-12" target="0K_7OPFD4pcJ4QNf9owB-31">
          <mxGeometry x="0.0021" width="80" relative="1" as="geometry">
            <mxPoint x="2126" y="435" as="sourcePoint" />
            <mxPoint x="2344" y="434.16999999999996" as="targetPoint" />
            <mxPoint as="offset" />
          </mxGeometry>
        </mxCell>
        <mxCell id="0K_7OPFD4pcJ4QNf9owB-31" value="" style="html=1;points=[[0,0,0,0,5],[0,1,0,0,-5],[1,0,0,0,5],[1,1,0,0,-5]];perimeter=orthogonalPerimeter;outlineConnect=0;targetShapes=umlLifeline;portConstraint=eastwest;newEdgeStyle={&quot;curved&quot;:0,&quot;rounded&quot;:0};" vertex="1" parent="1">
          <mxGeometry x="2454" y="430" width="10" height="30" as="geometry" />
        </mxCell>
        <mxCell id="0K_7OPFD4pcJ4QNf9owB-32" value="" style="endArrow=none;dashed=1;html=1;rounded=0;" edge="1" parent="1" target="0K_7OPFD4pcJ4QNf9owB-33">
          <mxGeometry width="50" height="50" relative="1" as="geometry">
            <mxPoint x="2580" y="530" as="sourcePoint" />
            <mxPoint x="2579.55" y="190" as="targetPoint" />
          </mxGeometry>
        </mxCell>
        <mxCell id="0K_7OPFD4pcJ4QNf9owB-33" value="" style="html=1;points=[[0,0,0,0,5],[0,1,0,0,-5],[1,0,0,0,5],[1,1,0,0,-5]];perimeter=orthogonalPerimeter;outlineConnect=0;targetShapes=umlLifeline;portConstraint=eastwest;newEdgeStyle={&quot;curved&quot;:0,&quot;rounded&quot;:0};" vertex="1" parent="1">
          <mxGeometry x="2575" y="430" width="10" height="90" as="geometry" />
        </mxCell>
        <mxCell id="0K_7OPFD4pcJ4QNf9owB-34" value="Menyimpan ke&amp;nbsp;&lt;div&gt;database&lt;/div&gt;" style="html=1;verticalAlign=bottom;endArrow=block;curved=0;rounded=0;" edge="1" parent="1" target="0K_7OPFD4pcJ4QNf9owB-33">
          <mxGeometry x="0.0052" width="80" relative="1" as="geometry">
            <mxPoint x="2464" y="444.47" as="sourcePoint" />
            <mxPoint x="2566" y="444.47" as="targetPoint" />
            <mxPoint as="offset" />
          </mxGeometry>
        </mxCell>
        <mxCell id="0K_7OPFD4pcJ4QNf9owB-35" value="" style="endArrow=none;dashed=1;html=1;rounded=0;" edge="1" parent="1" target="0K_7OPFD4pcJ4QNf9owB-36">
          <mxGeometry width="50" height="50" relative="1" as="geometry">
            <mxPoint x="2348" y="530" as="sourcePoint" />
            <mxPoint x="2348" y="190" as="targetPoint" />
          </mxGeometry>
        </mxCell>
        <mxCell id="0K_7OPFD4pcJ4QNf9owB-36" value="" style="html=1;points=[[0,0,0,0,5],[0,1,0,0,-5],[1,0,0,0,5],[1,1,0,0,-5]];perimeter=orthogonalPerimeter;outlineConnect=0;targetShapes=umlLifeline;portConstraint=eastwest;newEdgeStyle={&quot;curved&quot;:0,&quot;rounded&quot;:0};" vertex="1" parent="1">
          <mxGeometry x="2343" y="490" width="10" height="30" as="geometry" />
        </mxCell>
        <mxCell id="0K_7OPFD4pcJ4QNf9owB-37" value="Menampilkan laporan ringkas pembaruan&lt;div&gt;stok obat&lt;/div&gt;" style="html=1;verticalAlign=bottom;endArrow=block;curved=0;rounded=0;" edge="1" parent="1" source="0K_7OPFD4pcJ4QNf9owB-33">
          <mxGeometry x="0.0052" width="80" relative="1" as="geometry">
            <mxPoint x="2464" y="504.47" as="sourcePoint" />
            <mxPoint x="2353" y="504.94000000000005" as="targetPoint" />
            <mxPoint as="offset" />
          </mxGeometry>
        </mxCell>
        <mxCell id="0K_7OPFD4pcJ4QNf9owB-38" value="Squence Penambahan obat" style="text;align=center;fontStyle=1;verticalAlign=middle;spacingLeft=3;spacingRight=3;strokeColor=none;rotatable=0;points=[[0,0.5],[1,0.5]];portConstraint=eastwest;html=1;" vertex="1" parent="1">
          <mxGeometry x="2241" y="30" width="80" height="26" as="geometry" />
        </mxCell>
        <mxCell id="0K_7OPFD4pcJ4QNf9owB-39" value="Pengurangan" style="shape=umlBoundary;whiteSpace=wrap;html=1;" vertex="1" parent="1">
          <mxGeometry x="2168.5" y="618" width="90" height="72" as="geometry" />
        </mxCell>
        <mxCell id="0K_7OPFD4pcJ4QNf9owB-41" value="Database" style="ellipse;shape=umlEntity;whiteSpace=wrap;html=1;" vertex="1" parent="1">
          <mxGeometry x="2304.5" y="618" width="70" height="70" as="geometry" />
        </mxCell>
        <mxCell id="0K_7OPFD4pcJ4QNf9owB-42" value="Admin/Apoteker" style="shape=umlActor;verticalLabelPosition=bottom;verticalAlign=top;html=1;" vertex="1" parent="1">
          <mxGeometry x="1968.5" y="610" width="40" height="70" as="geometry" />
        </mxCell>
        <mxCell id="0K_7OPFD4pcJ4QNf9owB-43" value="" style="endArrow=none;dashed=1;html=1;rounded=0;" edge="1" parent="1" source="0K_7OPFD4pcJ4QNf9owB-50">
          <mxGeometry width="50" height="50" relative="1" as="geometry">
            <mxPoint x="1988.5" y="1010" as="sourcePoint" />
            <mxPoint x="1988.5" y="710" as="targetPoint" />
          </mxGeometry>
        </mxCell>
        <mxCell id="0K_7OPFD4pcJ4QNf9owB-44" value="" style="endArrow=none;dashed=1;html=1;rounded=0;" edge="1" parent="1" source="0K_7OPFD4pcJ4QNf9owB-52">
          <mxGeometry width="50" height="50" relative="1" as="geometry">
            <mxPoint x="2098.5" y="1010" as="sourcePoint" />
            <mxPoint x="2098.5" y="710" as="targetPoint" />
          </mxGeometry>
        </mxCell>
        <mxCell id="0K_7OPFD4pcJ4QNf9owB-45" value="" style="endArrow=none;dashed=1;html=1;rounded=0;" edge="1" parent="1" source="0K_7OPFD4pcJ4QNf9owB-55">
          <mxGeometry width="50" height="50" relative="1" as="geometry">
            <mxPoint x="2218.5" y="1010" as="sourcePoint" />
            <mxPoint x="2218.5" y="710" as="targetPoint" />
          </mxGeometry>
        </mxCell>
        <mxCell id="0K_7OPFD4pcJ4QNf9owB-47" value="Menu Dashboard" style="shape=umlBoundary;whiteSpace=wrap;html=1;" vertex="1" parent="1">
          <mxGeometry x="2048.5" y="618" width="90" height="72" as="geometry" />
        </mxCell>
        <mxCell id="0K_7OPFD4pcJ4QNf9owB-48" value="" style="endArrow=none;dashed=1;html=1;rounded=0;" edge="1" parent="1" source="0K_7OPFD4pcJ4QNf9owB-71">
          <mxGeometry width="50" height="50" relative="1" as="geometry">
            <mxPoint x="2339.05" y="1016" as="sourcePoint" />
            <mxPoint x="2339.05" y="716" as="targetPoint" />
          </mxGeometry>
        </mxCell>
        <mxCell id="0K_7OPFD4pcJ4QNf9owB-49" value="" style="endArrow=none;dashed=1;html=1;rounded=0;" edge="1" parent="1" target="0K_7OPFD4pcJ4QNf9owB-50">
          <mxGeometry width="50" height="50" relative="1" as="geometry">
            <mxPoint x="1988.5" y="1050" as="sourcePoint" />
            <mxPoint x="1988.5" y="710" as="targetPoint" />
          </mxGeometry>
        </mxCell>
        <mxCell id="0K_7OPFD4pcJ4QNf9owB-50" value="" style="html=1;points=[[0,0,0,0,5],[0,1,0,0,-5],[1,0,0,0,5],[1,1,0,0,-5]];perimeter=orthogonalPerimeter;outlineConnect=0;targetShapes=umlLifeline;portConstraint=eastwest;newEdgeStyle={&quot;curved&quot;:0,&quot;rounded&quot;:0};" vertex="1" parent="1">
          <mxGeometry x="1982.5" y="750" width="10" height="290" as="geometry" />
        </mxCell>
        <mxCell id="0K_7OPFD4pcJ4QNf9owB-51" value="" style="endArrow=none;dashed=1;html=1;rounded=0;" edge="1" parent="1" target="0K_7OPFD4pcJ4QNf9owB-52">
          <mxGeometry width="50" height="50" relative="1" as="geometry">
            <mxPoint x="2098.5" y="1050" as="sourcePoint" />
            <mxPoint x="2098.5" y="710" as="targetPoint" />
          </mxGeometry>
        </mxCell>
        <mxCell id="0K_7OPFD4pcJ4QNf9owB-52" value="" style="html=1;points=[[0,0,0,0,5],[0,1,0,0,-5],[1,0,0,0,5],[1,1,0,0,-5]];perimeter=orthogonalPerimeter;outlineConnect=0;targetShapes=umlLifeline;portConstraint=eastwest;newEdgeStyle={&quot;curved&quot;:0,&quot;rounded&quot;:0};" vertex="1" parent="1">
          <mxGeometry x="2092.5" y="750" width="10" height="30" as="geometry" />
        </mxCell>
        <mxCell id="0K_7OPFD4pcJ4QNf9owB-53" value="Memilih menu&lt;br&gt;Pengurangan" style="html=1;verticalAlign=bottom;endArrow=block;curved=0;rounded=0;fontSize=10;" edge="1" parent="1">
          <mxGeometry x="0.0105" width="80" relative="1" as="geometry">
            <mxPoint x="1992.5" y="750" as="sourcePoint" />
            <mxPoint x="2092.5" y="750" as="targetPoint" />
            <mxPoint as="offset" />
          </mxGeometry>
        </mxCell>
        <mxCell id="0K_7OPFD4pcJ4QNf9owB-54" value="" style="endArrow=none;dashed=1;html=1;rounded=0;" edge="1" parent="1" source="0K_7OPFD4pcJ4QNf9owB-63" target="0K_7OPFD4pcJ4QNf9owB-55">
          <mxGeometry width="50" height="50" relative="1" as="geometry">
            <mxPoint x="2218.5" y="1010" as="sourcePoint" />
            <mxPoint x="2218.5" y="710" as="targetPoint" />
          </mxGeometry>
        </mxCell>
        <mxCell id="0K_7OPFD4pcJ4QNf9owB-55" value="" style="html=1;points=[[0,0,0,0,5],[0,1,0,0,-5],[1,0,0,0,5],[1,1,0,0,-5]];perimeter=orthogonalPerimeter;outlineConnect=0;targetShapes=umlLifeline;portConstraint=eastwest;newEdgeStyle={&quot;curved&quot;:0,&quot;rounded&quot;:0};" vertex="1" parent="1">
          <mxGeometry x="2213.5" y="775" width="10" height="25" as="geometry" />
        </mxCell>
        <mxCell id="0K_7OPFD4pcJ4QNf9owB-60" value="Pilih obat dan jumlah yang akan di gunakan" style="html=1;verticalAlign=bottom;endArrow=block;curved=0;rounded=0;entryX=0;entryY=0;entryDx=0;entryDy=5;entryPerimeter=0;" edge="1" parent="1" target="0K_7OPFD4pcJ4QNf9owB-63">
          <mxGeometry width="80" relative="1" as="geometry">
            <mxPoint x="1992.5" y="834.17" as="sourcePoint" />
            <mxPoint x="2103.5" y="834.17" as="targetPoint" />
          </mxGeometry>
        </mxCell>
        <mxCell id="0K_7OPFD4pcJ4QNf9owB-61" value="Tampilkan ( )" style="html=1;verticalAlign=bottom;endArrow=block;curved=0;rounded=0;" edge="1" parent="1" target="0K_7OPFD4pcJ4QNf9owB-55">
          <mxGeometry x="-0.003" width="80" relative="1" as="geometry">
            <mxPoint x="2101.5" y="775" as="sourcePoint" />
            <mxPoint x="2203.5" y="775" as="targetPoint" />
            <mxPoint as="offset" />
          </mxGeometry>
        </mxCell>
        <mxCell id="0K_7OPFD4pcJ4QNf9owB-62" value="" style="endArrow=none;dashed=1;html=1;rounded=0;" edge="1" parent="1" target="0K_7OPFD4pcJ4QNf9owB-63" source="0K_7OPFD4pcJ4QNf9owB-67">
          <mxGeometry width="50" height="50" relative="1" as="geometry">
            <mxPoint x="2218.5" y="1050" as="sourcePoint" />
            <mxPoint x="2218.5" y="800" as="targetPoint" />
          </mxGeometry>
        </mxCell>
        <mxCell id="0K_7OPFD4pcJ4QNf9owB-63" value="" style="html=1;points=[[0,0,0,0,5],[0,1,0,0,-5],[1,0,0,0,5],[1,1,0,0,-5]];perimeter=orthogonalPerimeter;outlineConnect=0;targetShapes=umlLifeline;portConstraint=eastwest;newEdgeStyle={&quot;curved&quot;:0,&quot;rounded&quot;:0};" vertex="1" parent="1">
          <mxGeometry x="2213.5" y="830" width="10" height="30" as="geometry" />
        </mxCell>
        <mxCell id="0K_7OPFD4pcJ4QNf9owB-66" value="Masukan alasan penggunaan" style="html=1;verticalAlign=bottom;endArrow=block;curved=0;rounded=0;entryX=0;entryY=0;entryDx=0;entryDy=5;entryPerimeter=0;" edge="1" parent="1" source="0K_7OPFD4pcJ4QNf9owB-50" target="0K_7OPFD4pcJ4QNf9owB-67">
          <mxGeometry x="0.0021" width="80" relative="1" as="geometry">
            <mxPoint x="2099.5" y="894.17" as="sourcePoint" />
            <mxPoint x="2210.5" y="894.17" as="targetPoint" />
            <mxPoint as="offset" />
          </mxGeometry>
        </mxCell>
        <mxCell id="0K_7OPFD4pcJ4QNf9owB-68" value="Menyimpan data stok obat" style="html=1;verticalAlign=bottom;endArrow=block;curved=0;rounded=0;entryX=0;entryY=0;entryDx=0;entryDy=5;entryPerimeter=0;" edge="1" parent="1" source="0K_7OPFD4pcJ4QNf9owB-50" target="0K_7OPFD4pcJ4QNf9owB-69">
          <mxGeometry x="0.0021" width="80" relative="1" as="geometry">
            <mxPoint x="2104.5" y="955" as="sourcePoint" />
            <mxPoint x="2322.5" y="954.17" as="targetPoint" />
            <mxPoint as="offset" />
          </mxGeometry>
        </mxCell>
        <mxCell id="0K_7OPFD4pcJ4QNf9owB-70" value="" style="endArrow=none;dashed=1;html=1;rounded=0;" edge="1" parent="1" target="0K_7OPFD4pcJ4QNf9owB-71">
          <mxGeometry width="50" height="50" relative="1" as="geometry">
            <mxPoint x="2339.5" y="1056" as="sourcePoint" />
            <mxPoint x="2339.05" y="716" as="targetPoint" />
          </mxGeometry>
        </mxCell>
        <mxCell id="0K_7OPFD4pcJ4QNf9owB-71" value="" style="html=1;points=[[0,0,0,0,5],[0,1,0,0,-5],[1,0,0,0,5],[1,1,0,0,-5]];perimeter=orthogonalPerimeter;outlineConnect=0;targetShapes=umlLifeline;portConstraint=eastwest;newEdgeStyle={&quot;curved&quot;:0,&quot;rounded&quot;:0};" vertex="1" parent="1">
          <mxGeometry x="2334.5" y="940" width="10" height="106" as="geometry" />
        </mxCell>
        <mxCell id="0K_7OPFD4pcJ4QNf9owB-72" value="Menyimpan ke&amp;nbsp;&lt;div&gt;database&lt;/div&gt;" style="html=1;verticalAlign=bottom;endArrow=block;curved=0;rounded=0;" edge="1" parent="1">
          <mxGeometry x="0.0039" width="80" relative="1" as="geometry">
            <mxPoint x="2223.5" y="959.2900000000001" as="sourcePoint" />
            <mxPoint x="2334.5" y="959.2900000000001" as="targetPoint" />
            <mxPoint as="offset" />
          </mxGeometry>
        </mxCell>
        <mxCell id="0K_7OPFD4pcJ4QNf9owB-75" value="Menampilkan&amp;nbsp;&lt;div&gt;Laporan pengurangan&lt;/div&gt;" style="html=1;verticalAlign=bottom;endArrow=block;curved=0;rounded=0;entryX=0.679;entryY=0.548;entryDx=0;entryDy=0;entryPerimeter=0;" edge="1" parent="1" source="0K_7OPFD4pcJ4QNf9owB-71" target="0K_7OPFD4pcJ4QNf9owB-74">
          <mxGeometry x="0.0052" width="80" relative="1" as="geometry">
            <mxPoint x="2442.5" y="1024.47" as="sourcePoint" />
            <mxPoint x="2331.5" y="1024.94" as="targetPoint" />
            <mxPoint as="offset" />
          </mxGeometry>
        </mxCell>
        <mxCell id="0K_7OPFD4pcJ4QNf9owB-76" value="Squence Penambahan obat" style="text;align=center;fontStyle=1;verticalAlign=middle;spacingLeft=3;spacingRight=3;strokeColor=none;rotatable=0;points=[[0,0.5],[1,0.5]];portConstraint=eastwest;html=1;" vertex="1" parent="1">
          <mxGeometry x="2219.5" y="550" width="80" height="26" as="geometry" />
        </mxCell>
        <mxCell id="0K_7OPFD4pcJ4QNf9owB-78" value="" style="endArrow=none;dashed=1;html=1;rounded=0;" edge="1" parent="1" source="0K_7OPFD4pcJ4QNf9owB-69" target="0K_7OPFD4pcJ4QNf9owB-67">
          <mxGeometry width="50" height="50" relative="1" as="geometry">
            <mxPoint x="2218.5" y="1050" as="sourcePoint" />
            <mxPoint x="2219" y="860" as="targetPoint" />
          </mxGeometry>
        </mxCell>
        <mxCell id="0K_7OPFD4pcJ4QNf9owB-67" value="" style="html=1;points=[[0,0,0,0,5],[0,1,0,0,-5],[1,0,0,0,5],[1,1,0,0,-5]];perimeter=orthogonalPerimeter;outlineConnect=0;targetShapes=umlLifeline;portConstraint=eastwest;newEdgeStyle={&quot;curved&quot;:0,&quot;rounded&quot;:0};" vertex="1" parent="1">
          <mxGeometry x="2213.5" y="880" width="10" height="30" as="geometry" />
        </mxCell>
        <mxCell id="0K_7OPFD4pcJ4QNf9owB-79" style="edgeStyle=orthogonalEdgeStyle;rounded=0;orthogonalLoop=1;jettySize=auto;html=1;curved=0;" edge="1" parent="1" source="0K_7OPFD4pcJ4QNf9owB-63" target="0K_7OPFD4pcJ4QNf9owB-63">
          <mxGeometry relative="1" as="geometry" />
        </mxCell>
        <mxCell id="0K_7OPFD4pcJ4QNf9owB-81" value="" style="endArrow=none;dashed=1;html=1;rounded=0;" edge="1" parent="1" target="0K_7OPFD4pcJ4QNf9owB-74">
          <mxGeometry width="50" height="50" relative="1" as="geometry">
            <mxPoint x="2218.5" y="1050" as="sourcePoint" />
            <mxPoint x="2219" y="910" as="targetPoint" />
          </mxGeometry>
        </mxCell>
        <mxCell id="0K_7OPFD4pcJ4QNf9owB-74" value="" style="html=1;points=[[0,0,0,0,5],[0,1,0,0,-5],[1,0,0,0,5],[1,1,0,0,-5]];perimeter=orthogonalPerimeter;outlineConnect=0;targetShapes=umlLifeline;portConstraint=eastwest;newEdgeStyle={&quot;curved&quot;:0,&quot;rounded&quot;:0};" vertex="1" parent="1">
          <mxGeometry x="2213.5" y="1010" width="10" height="30" as="geometry" />
        </mxCell>
        <mxCell id="0K_7OPFD4pcJ4QNf9owB-82" value="" style="endArrow=none;dashed=1;html=1;rounded=0;" edge="1" parent="1" source="0K_7OPFD4pcJ4QNf9owB-74" target="0K_7OPFD4pcJ4QNf9owB-69">
          <mxGeometry width="50" height="50" relative="1" as="geometry">
            <mxPoint x="2219" y="1010" as="sourcePoint" />
            <mxPoint x="2219" y="910" as="targetPoint" />
          </mxGeometry>
        </mxCell>
        <mxCell id="0K_7OPFD4pcJ4QNf9owB-69" value="" style="html=1;points=[[0,0,0,0,5],[0,1,0,0,-5],[1,0,0,0,5],[1,1,0,0,-5]];perimeter=orthogonalPerimeter;outlineConnect=0;targetShapes=umlLifeline;portConstraint=eastwest;newEdgeStyle={&quot;curved&quot;:0,&quot;rounded&quot;:0};" vertex="1" parent="1">
          <mxGeometry x="2213.5" y="935" width="10" height="30" as="geometry" />
        </mxCell>
        <mxCell id="0K_7OPFD4pcJ4QNf9owB-83" style="edgeStyle=orthogonalEdgeStyle;rounded=0;orthogonalLoop=1;jettySize=auto;html=1;curved=0;exitX=1;exitY=0;exitDx=0;exitDy=5;exitPerimeter=0;" edge="1" parent="1" source="0K_7OPFD4pcJ4QNf9owB-67" target="0K_7OPFD4pcJ4QNf9owB-67">
          <mxGeometry relative="1" as="geometry">
            <Array as="points">
              <mxPoint x="2244" y="885" />
              <mxPoint x="2244" y="900" />
            </Array>
          </mxGeometry>
        </mxCell>
      </root>
    </mxGraphModel>
  </diagram>
</mxfile>
